<mxfile host="app.diagrams.net" modified="2022-04-06T01:21:21.783Z" agent="5.0 (Windows NT 10.0; Win64; x64) AppleWebKit/537.36 (KHTML, like Gecko) Chrome/99.0.4844.84 Safari/537.36" etag="g487y_aiD3rus9gqWAei" version="17.3.0" type="github">
  <diagram id="lPhwvrIf9fvsg2kCRnDx" name="Page-1">
    <mxGraphModel dx="1422" dy="802" grid="1" gridSize="10" guides="1" tooltips="1" connect="1" arrows="1" fold="1" page="1" pageScale="1" pageWidth="827" pageHeight="1169" math="0" shadow="0">
      <root>
        <mxCell id="0" />
        <mxCell id="1" parent="0" />
        <mxCell id="UZmu4c3q16m0rg6N8I7Y-1" value="简体中文" style="rounded=0;whiteSpace=wrap;html=1;fillColor=#3399FF;fontColor=#FFFFFF;strokeColor=none;" vertex="1" parent="1">
          <mxGeometry x="120" y="190" width="120" height="60" as="geometry" />
        </mxCell>
        <mxCell id="UZmu4c3q16m0rg6N8I7Y-3" value="简体中文 + 英语" style="rounded=0;whiteSpace=wrap;html=1;fillColor=#3399FF;fontColor=#FFFFFF;strokeColor=none;" vertex="1" parent="1">
          <mxGeometry x="280" y="190" width="120" height="60" as="geometry" />
        </mxCell>
        <mxCell id="UZmu4c3q16m0rg6N8I7Y-6" value="简体中文、繁体中文 ，英语，日语、韩语、西班牙语，越南语" style="rounded=0;whiteSpace=wrap;html=1;fillColor=#3399FF;fontColor=#FFFFFF;strokeColor=none;" vertex="1" parent="1">
          <mxGeometry x="440" y="190" width="120" height="60" as="geometry" />
        </mxCell>
        <mxCell id="UZmu4c3q16m0rg6N8I7Y-2" style="edgeStyle=orthogonalEdgeStyle;rounded=0;orthogonalLoop=1;jettySize=auto;html=1;exitX=1;exitY=0.5;exitDx=0;exitDy=0;" edge="1" parent="1" source="UZmu4c3q16m0rg6N8I7Y-1">
          <mxGeometry relative="1" as="geometry">
            <mxPoint x="280" y="220" as="targetPoint" />
          </mxGeometry>
        </mxCell>
        <mxCell id="UZmu4c3q16m0rg6N8I7Y-4" style="edgeStyle=orthogonalEdgeStyle;rounded=0;orthogonalLoop=1;jettySize=auto;html=1;exitX=1;exitY=0.5;exitDx=0;exitDy=0;" edge="1" parent="1" source="UZmu4c3q16m0rg6N8I7Y-3">
          <mxGeometry relative="1" as="geometry">
            <mxPoint x="440" y="220" as="targetPoint" />
          </mxGeometry>
        </mxCell>
        <mxCell id="UZmu4c3q16m0rg6N8I7Y-16" style="edgeStyle=orthogonalEdgeStyle;rounded=0;orthogonalLoop=1;jettySize=auto;html=1;exitX=0.5;exitY=1;exitDx=0;exitDy=0;fontColor=#FFFFFF;" edge="1" parent="1" source="UZmu4c3q16m0rg6N8I7Y-7" target="UZmu4c3q16m0rg6N8I7Y-11">
          <mxGeometry relative="1" as="geometry">
            <Array as="points">
              <mxPoint x="390" y="450" />
              <mxPoint x="130" y="450" />
            </Array>
          </mxGeometry>
        </mxCell>
        <mxCell id="UZmu4c3q16m0rg6N8I7Y-17" style="edgeStyle=orthogonalEdgeStyle;rounded=0;orthogonalLoop=1;jettySize=auto;html=1;exitX=0.5;exitY=1;exitDx=0;exitDy=0;fontColor=#FFFFFF;" edge="1" parent="1" source="UZmu4c3q16m0rg6N8I7Y-7" target="UZmu4c3q16m0rg6N8I7Y-12">
          <mxGeometry relative="1" as="geometry" />
        </mxCell>
        <mxCell id="UZmu4c3q16m0rg6N8I7Y-18" style="edgeStyle=orthogonalEdgeStyle;rounded=0;orthogonalLoop=1;jettySize=auto;html=1;exitX=0.5;exitY=1;exitDx=0;exitDy=0;fontColor=#FFFFFF;" edge="1" parent="1" source="UZmu4c3q16m0rg6N8I7Y-7" target="UZmu4c3q16m0rg6N8I7Y-13">
          <mxGeometry relative="1" as="geometry" />
        </mxCell>
        <mxCell id="UZmu4c3q16m0rg6N8I7Y-19" style="edgeStyle=orthogonalEdgeStyle;rounded=0;orthogonalLoop=1;jettySize=auto;html=1;exitX=0.5;exitY=1;exitDx=0;exitDy=0;fontColor=#FFFFFF;" edge="1" parent="1" source="UZmu4c3q16m0rg6N8I7Y-7" target="UZmu4c3q16m0rg6N8I7Y-14">
          <mxGeometry relative="1" as="geometry" />
        </mxCell>
        <mxCell id="UZmu4c3q16m0rg6N8I7Y-41" style="edgeStyle=orthogonalEdgeStyle;rounded=0;orthogonalLoop=1;jettySize=auto;html=1;exitX=1;exitY=0.5;exitDx=0;exitDy=0;fontSize=12;fontColor=#FFFFFF;" edge="1" parent="1" source="UZmu4c3q16m0rg6N8I7Y-7" target="UZmu4c3q16m0rg6N8I7Y-40">
          <mxGeometry relative="1" as="geometry" />
        </mxCell>
        <mxCell id="UZmu4c3q16m0rg6N8I7Y-7" value="主站（简体中文）&lt;br&gt;www.aa.com" style="rounded=1;whiteSpace=wrap;html=1;fontColor=#FFFFFF;fillColor=#007FFF;" vertex="1" parent="1">
          <mxGeometry x="330" y="360" width="120" height="60" as="geometry" />
        </mxCell>
        <mxCell id="UZmu4c3q16m0rg6N8I7Y-36" style="edgeStyle=orthogonalEdgeStyle;rounded=0;orthogonalLoop=1;jettySize=auto;html=1;exitX=0.5;exitY=1;exitDx=0;exitDy=0;entryX=0.5;entryY=0;entryDx=0;entryDy=0;entryPerimeter=0;fontSize=12;fontColor=#FFFFFF;" edge="1" parent="1" source="UZmu4c3q16m0rg6N8I7Y-11" target="UZmu4c3q16m0rg6N8I7Y-20">
          <mxGeometry relative="1" as="geometry" />
        </mxCell>
        <mxCell id="UZmu4c3q16m0rg6N8I7Y-11" value="子站（英语）&lt;br&gt;en.aa.com" style="rounded=1;whiteSpace=wrap;html=1;fontColor=#FFFFFF;fillColor=#007FFF;" vertex="1" parent="1">
          <mxGeometry x="70" y="480" width="120" height="60" as="geometry" />
        </mxCell>
        <mxCell id="UZmu4c3q16m0rg6N8I7Y-37" style="edgeStyle=orthogonalEdgeStyle;rounded=0;orthogonalLoop=1;jettySize=auto;html=1;exitX=0.5;exitY=1;exitDx=0;exitDy=0;entryX=0.5;entryY=0;entryDx=0;entryDy=0;entryPerimeter=0;fontSize=12;fontColor=#FFFFFF;" edge="1" parent="1" source="UZmu4c3q16m0rg6N8I7Y-12" target="UZmu4c3q16m0rg6N8I7Y-31">
          <mxGeometry relative="1" as="geometry" />
        </mxCell>
        <mxCell id="UZmu4c3q16m0rg6N8I7Y-12" value="子站（日语）&lt;br&gt;ja.aa.com" style="rounded=1;whiteSpace=wrap;html=1;fontColor=#FFFFFF;fillColor=#007FFF;" vertex="1" parent="1">
          <mxGeometry x="240" y="480" width="120" height="60" as="geometry" />
        </mxCell>
        <mxCell id="UZmu4c3q16m0rg6N8I7Y-38" style="edgeStyle=orthogonalEdgeStyle;rounded=0;orthogonalLoop=1;jettySize=auto;html=1;exitX=0.5;exitY=1;exitDx=0;exitDy=0;entryX=0.5;entryY=0;entryDx=0;entryDy=0;entryPerimeter=0;fontSize=12;fontColor=#FFFFFF;" edge="1" parent="1" source="UZmu4c3q16m0rg6N8I7Y-13" target="UZmu4c3q16m0rg6N8I7Y-32">
          <mxGeometry relative="1" as="geometry" />
        </mxCell>
        <mxCell id="UZmu4c3q16m0rg6N8I7Y-13" value="子站（韩语）&lt;br&gt;ko.aa.com" style="rounded=1;whiteSpace=wrap;html=1;fontColor=#FFFFFF;fillColor=#007FFF;" vertex="1" parent="1">
          <mxGeometry x="410" y="480" width="120" height="60" as="geometry" />
        </mxCell>
        <mxCell id="UZmu4c3q16m0rg6N8I7Y-39" style="edgeStyle=orthogonalEdgeStyle;rounded=0;orthogonalLoop=1;jettySize=auto;html=1;exitX=0.5;exitY=1;exitDx=0;exitDy=0;entryX=0.5;entryY=0;entryDx=0;entryDy=0;entryPerimeter=0;fontSize=12;fontColor=#FFFFFF;" edge="1" parent="1" source="UZmu4c3q16m0rg6N8I7Y-14" target="UZmu4c3q16m0rg6N8I7Y-33">
          <mxGeometry relative="1" as="geometry" />
        </mxCell>
        <mxCell id="UZmu4c3q16m0rg6N8I7Y-14" value="子站（西班牙语）&lt;br&gt;es.aa.com" style="rounded=1;whiteSpace=wrap;html=1;fontColor=#FFFFFF;fillColor=#007FFF;" vertex="1" parent="1">
          <mxGeometry x="580" y="480" width="120" height="60" as="geometry" />
        </mxCell>
        <mxCell id="UZmu4c3q16m0rg6N8I7Y-20" value="goods_name=&lt;br&gt;&lt;span style=&quot;font-family: &amp;#34;arial&amp;#34; , sans-serif ; text-align: left&quot;&gt;chocolate&lt;/span&gt;" style="shape=cylinder3;whiteSpace=wrap;html=1;boundedLbl=1;backgroundOutline=1;size=15;fontColor=#FFFFFF;fillColor=#FF9933;" vertex="1" parent="1">
          <mxGeometry x="80" y="590" width="100" height="80" as="geometry" />
        </mxCell>
        <mxCell id="UZmu4c3q16m0rg6N8I7Y-31" value="goods_name=&lt;br&gt;&lt;div style=&quot;text-align: left&quot;&gt;&lt;span style=&quot;font-family: &amp;#34;arial&amp;#34; , sans-serif&quot;&gt;チョコレート&lt;/span&gt;&lt;br&gt;&lt;/div&gt;" style="shape=cylinder3;whiteSpace=wrap;html=1;boundedLbl=1;backgroundOutline=1;size=15;fontColor=#FFFFFF;fillColor=#FF9933;" vertex="1" parent="1">
          <mxGeometry x="250" y="590" width="100" height="80" as="geometry" />
        </mxCell>
        <mxCell id="UZmu4c3q16m0rg6N8I7Y-32" value="&lt;font style=&quot;font-size: 12px&quot;&gt;goods_name=&lt;br&gt;&lt;/font&gt;&lt;div style=&quot;text-align: left&quot;&gt;&lt;span style=&quot;font-family: &amp;#34;arial&amp;#34; , sans-serif&quot;&gt;&amp;nbsp; &amp;nbsp; &amp;nbsp; 초콜릿&lt;/span&gt;&lt;br&gt;&lt;/div&gt;" style="shape=cylinder3;whiteSpace=wrap;html=1;boundedLbl=1;backgroundOutline=1;size=15;fontColor=#FFFFFF;fillColor=#FF9933;" vertex="1" parent="1">
          <mxGeometry x="420" y="590" width="100" height="80" as="geometry" />
        </mxCell>
        <mxCell id="UZmu4c3q16m0rg6N8I7Y-33" value="goods_name=&lt;br&gt;&lt;span style=&quot;font-family: &amp;#34;arial&amp;#34; , sans-serif ; text-align: left&quot;&gt;chocolate&lt;/span&gt;" style="shape=cylinder3;whiteSpace=wrap;html=1;boundedLbl=1;backgroundOutline=1;size=15;fontColor=#FFFFFF;fillColor=#FF9933;" vertex="1" parent="1">
          <mxGeometry x="590" y="590" width="100" height="80" as="geometry" />
        </mxCell>
        <mxCell id="UZmu4c3q16m0rg6N8I7Y-35" style="edgeStyle=orthogonalEdgeStyle;rounded=0;orthogonalLoop=1;jettySize=auto;html=1;exitX=0.5;exitY=1;exitDx=0;exitDy=0;fontSize=12;fontColor=#FFFFFF;" edge="1" parent="1" source="UZmu4c3q16m0rg6N8I7Y-12" target="UZmu4c3q16m0rg6N8I7Y-12">
          <mxGeometry relative="1" as="geometry" />
        </mxCell>
        <mxCell id="UZmu4c3q16m0rg6N8I7Y-40" value="goods_name=&lt;br&gt;&lt;div style=&quot;text-align: left&quot;&gt;&lt;font face=&quot;arial, sans-serif&quot;&gt;&amp;nbsp; &amp;nbsp; &amp;nbsp; 巧克力&lt;/font&gt;&lt;/div&gt;" style="shape=cylinder3;whiteSpace=wrap;html=1;boundedLbl=1;backgroundOutline=1;size=15;fontColor=#FFFFFF;fillColor=#FF9933;" vertex="1" parent="1">
          <mxGeometry x="540" y="350" width="100" height="80" as="geometry" />
        </mxCell>
        <mxCell id="UZmu4c3q16m0rg6N8I7Y-42" value="http://d1.rds.&lt;br&gt;amazonaws.com/" style="shape=document;whiteSpace=wrap;html=1;boundedLbl=1;fontSize=12;fontColor=#FFFFFF;fillColor=#3399FF;" vertex="1" parent="1">
          <mxGeometry x="690" y="350" width="120" height="80" as="geometry" />
        </mxCell>
        <mxCell id="UZmu4c3q16m0rg6N8I7Y-43" value="https://d2.rds.&lt;br&gt;amazonaws.com/" style="shape=document;whiteSpace=wrap;html=1;boundedLbl=1;fontSize=12;fontColor=#FFFFFF;fillColor=#9933FF;" vertex="1" parent="1">
          <mxGeometry x="70" y="690" width="120" height="80" as="geometry" />
        </mxCell>
        <mxCell id="UZmu4c3q16m0rg6N8I7Y-44" value="https://d3.rds.&lt;br&gt;amazonaws.com/" style="shape=document;whiteSpace=wrap;html=1;boundedLbl=1;fontSize=12;fontColor=#FFFFFF;fillColor=#9933FF;" vertex="1" parent="1">
          <mxGeometry x="240" y="690" width="120" height="80" as="geometry" />
        </mxCell>
        <mxCell id="UZmu4c3q16m0rg6N8I7Y-45" value="http://d4.rds.&lt;br&gt;amazonaws.com/" style="shape=document;whiteSpace=wrap;html=1;boundedLbl=1;fontSize=12;fontColor=#FFFFFF;fillColor=#3399FF;" vertex="1" parent="1">
          <mxGeometry x="410" y="690" width="120" height="80" as="geometry" />
        </mxCell>
        <mxCell id="UZmu4c3q16m0rg6N8I7Y-46" value="http://d5.rds.&lt;br&gt;amazonaws.com/" style="shape=document;whiteSpace=wrap;html=1;boundedLbl=1;fontSize=12;fontColor=#FFFFFF;fillColor=#3399FF;" vertex="1" parent="1">
          <mxGeometry x="580" y="690" width="120" height="80" as="geometry" />
        </mxCell>
        <mxCell id="UZmu4c3q16m0rg6N8I7Y-47" value="" style="rounded=1;whiteSpace=wrap;html=1;fontSize=12;fontColor=#FFFFFF;fillColor=#3399FF;" vertex="1" parent="1">
          <mxGeometry x="1010" y="230" width="120" height="60" as="geometry" />
        </mxCell>
        <mxCell id="UZmu4c3q16m0rg6N8I7Y-48" value="https://d1.rds.&lt;br&gt;amazonaws.com/" style="shape=document;whiteSpace=wrap;html=1;boundedLbl=1;fontSize=12;fontColor=#FFFFFF;fillColor=#9933FF;" vertex="1" parent="1">
          <mxGeometry x="690" y="350" width="120" height="80" as="geometry" />
        </mxCell>
        <mxCell id="UZmu4c3q16m0rg6N8I7Y-49" value="https://d5.rds.&lt;br&gt;amazonaws.com/" style="shape=document;whiteSpace=wrap;html=1;boundedLbl=1;fontSize=12;fontColor=#FFFFFF;fillColor=#9933FF;" vertex="1" parent="1">
          <mxGeometry x="580" y="690" width="120" height="80" as="geometry" />
        </mxCell>
        <mxCell id="UZmu4c3q16m0rg6N8I7Y-50" value="https://d4.rds.&lt;br&gt;amazonaws.com/" style="shape=document;whiteSpace=wrap;html=1;boundedLbl=1;fontSize=12;fontColor=#FFFFFF;fillColor=#9933FF;" vertex="1" parent="1">
          <mxGeometry x="410" y="690" width="120" height="80" as="geometry" />
        </mxCell>
        <mxCell id="UZmu4c3q16m0rg6N8I7Y-55" style="edgeStyle=orthogonalEdgeStyle;rounded=0;orthogonalLoop=1;jettySize=auto;html=1;exitX=1;exitY=0.5;exitDx=0;exitDy=0;exitPerimeter=0;entryX=0;entryY=0.5;entryDx=0;entryDy=0;entryPerimeter=0;fontSize=12;fontColor=#FFFFFF;" edge="1" parent="1" source="UZmu4c3q16m0rg6N8I7Y-52" target="UZmu4c3q16m0rg6N8I7Y-53">
          <mxGeometry relative="1" as="geometry" />
        </mxCell>
        <mxCell id="UZmu4c3q16m0rg6N8I7Y-52" value="goods_name=&lt;br&gt;&lt;div style=&quot;text-align: left&quot;&gt;&lt;span&gt;&lt;font face=&quot;arial, sans-serif&quot;&gt;巧克力&lt;/font&gt;&lt;/span&gt;&lt;/div&gt;" style="shape=cylinder3;whiteSpace=wrap;html=1;boundedLbl=1;backgroundOutline=1;size=15;fontColor=#FFFFFF;fillColor=#FF9933;" vertex="1" parent="1">
          <mxGeometry x="90" y="870" width="150" height="120" as="geometry" />
        </mxCell>
        <mxCell id="UZmu4c3q16m0rg6N8I7Y-56" style="edgeStyle=orthogonalEdgeStyle;rounded=0;orthogonalLoop=1;jettySize=auto;html=1;exitX=1;exitY=0.5;exitDx=0;exitDy=0;exitPerimeter=0;entryX=0;entryY=0.5;entryDx=0;entryDy=0;entryPerimeter=0;fontSize=12;fontColor=#FFFFFF;" edge="1" parent="1" source="UZmu4c3q16m0rg6N8I7Y-53" target="UZmu4c3q16m0rg6N8I7Y-54">
          <mxGeometry relative="1" as="geometry" />
        </mxCell>
        <mxCell id="UZmu4c3q16m0rg6N8I7Y-53" value="goods_name=&lt;br&gt;&lt;div style=&quot;text-align: left&quot;&gt;&lt;span&gt;&lt;font face=&quot;arial, sans-serif&quot;&gt;&amp;nbsp; &amp;nbsp; &amp;nbsp; &amp;nbsp; 巧克力&lt;/font&gt;&lt;/span&gt;&lt;/div&gt;&lt;div style=&quot;text-align: left&quot;&gt;&lt;span&gt;&lt;font face=&quot;arial, sans-serif&quot;&gt;goods_name_en=&lt;/font&gt;&lt;/span&gt;&lt;/div&gt;&lt;span style=&quot;font-family: &amp;#34;arial&amp;#34; , sans-serif ; text-align: left&quot;&gt;chocolate&lt;/span&gt;" style="shape=cylinder3;whiteSpace=wrap;html=1;boundedLbl=1;backgroundOutline=1;size=15;fontColor=#FFFFFF;fillColor=#FF9933;" vertex="1" parent="1">
          <mxGeometry x="320" y="870" width="150" height="120" as="geometry" />
        </mxCell>
        <mxCell id="UZmu4c3q16m0rg6N8I7Y-54" value="goods_name=&lt;br&gt;&lt;div style=&quot;text-align: left&quot;&gt;&lt;span&gt;&lt;font face=&quot;arial, sans-serif&quot;&gt;&amp;nbsp; &amp;nbsp; &amp;nbsp; &amp;nbsp; 巧克力&lt;/font&gt;&lt;/span&gt;&lt;/div&gt;&lt;div style=&quot;text-align: left&quot;&gt;&lt;span&gt;&lt;font face=&quot;arial, sans-serif&quot;&gt;goods_name_en=&lt;/font&gt;&lt;/span&gt;&lt;/div&gt;&lt;span style=&quot;font-family: &amp;#34;arial&amp;#34; , sans-serif ; text-align: left&quot;&gt;chocolate&lt;br&gt;goods_name_ko=&lt;br&gt;&lt;/span&gt;&lt;span style=&quot;font-family: &amp;#34;arial&amp;#34; , sans-serif ; text-align: left&quot;&gt;초콜릿&lt;/span&gt;&lt;span style=&quot;font-family: &amp;#34;arial&amp;#34; , sans-serif ; text-align: left&quot;&gt;&lt;br&gt;&lt;/span&gt;" style="shape=cylinder3;whiteSpace=wrap;html=1;boundedLbl=1;backgroundOutline=1;size=15;fontColor=#FFFFFF;fillColor=#FF9933;" vertex="1" parent="1">
          <mxGeometry x="550" y="870" width="150" height="120" as="geometry" />
        </mxCell>
        <mxCell id="UZmu4c3q16m0rg6N8I7Y-101" value="" style="shape=table;startSize=0;container=1;collapsible=0;childLayout=tableLayout;fontSize=15;fontColor=#FFFFFF;fillColor=#FF9933;" vertex="1" parent="1">
          <mxGeometry x="90" y="1060" width="470" height="160" as="geometry" />
        </mxCell>
        <mxCell id="UZmu4c3q16m0rg6N8I7Y-102" value="" style="shape=tableRow;horizontal=0;startSize=0;swimlaneHead=0;swimlaneBody=0;top=0;left=0;bottom=0;right=0;collapsible=0;dropTarget=0;fillColor=none;points=[[0,0.5],[1,0.5]];portConstraint=eastwest;fontSize=15;fontColor=#FFFFFF;" vertex="1" parent="UZmu4c3q16m0rg6N8I7Y-101">
          <mxGeometry width="470" height="40" as="geometry" />
        </mxCell>
        <mxCell id="UZmu4c3q16m0rg6N8I7Y-103" value="id" style="shape=partialRectangle;html=1;whiteSpace=wrap;connectable=0;overflow=hidden;fillColor=none;top=0;left=0;bottom=0;right=0;pointerEvents=1;fontSize=15;fontColor=#FFFFFF;" vertex="1" parent="UZmu4c3q16m0rg6N8I7Y-102">
          <mxGeometry width="60" height="40" as="geometry">
            <mxRectangle width="60" height="40" as="alternateBounds" />
          </mxGeometry>
        </mxCell>
        <mxCell id="UZmu4c3q16m0rg6N8I7Y-104" value="goods_name" style="shape=partialRectangle;html=1;whiteSpace=wrap;connectable=0;overflow=hidden;fillColor=none;top=0;left=0;bottom=0;right=0;pointerEvents=1;fontSize=15;fontColor=#FFFFFF;" vertex="1" parent="UZmu4c3q16m0rg6N8I7Y-102">
          <mxGeometry x="60" width="100" height="40" as="geometry">
            <mxRectangle width="100" height="40" as="alternateBounds" />
          </mxGeometry>
        </mxCell>
        <mxCell id="UZmu4c3q16m0rg6N8I7Y-105" value="goods_name_en" style="shape=partialRectangle;html=1;whiteSpace=wrap;connectable=0;overflow=hidden;fillColor=none;top=0;left=0;bottom=0;right=0;pointerEvents=1;fontSize=15;fontColor=#FFFFFF;" vertex="1" parent="UZmu4c3q16m0rg6N8I7Y-102">
          <mxGeometry x="160" width="120" height="40" as="geometry">
            <mxRectangle width="120" height="40" as="alternateBounds" />
          </mxGeometry>
        </mxCell>
        <mxCell id="UZmu4c3q16m0rg6N8I7Y-106" value="" style="shape=partialRectangle;html=1;whiteSpace=wrap;connectable=0;overflow=hidden;fillColor=none;top=0;left=0;bottom=0;right=0;pointerEvents=1;fontSize=15;fontColor=#FFFFFF;" vertex="1" parent="UZmu4c3q16m0rg6N8I7Y-102">
          <mxGeometry x="280" width="80" height="40" as="geometry">
            <mxRectangle width="80" height="40" as="alternateBounds" />
          </mxGeometry>
        </mxCell>
        <mxCell id="UZmu4c3q16m0rg6N8I7Y-107" value="" style="shape=partialRectangle;html=1;whiteSpace=wrap;connectable=0;overflow=hidden;fillColor=none;top=0;left=0;bottom=0;right=0;pointerEvents=1;fontSize=15;fontColor=#FFFFFF;" vertex="1" parent="UZmu4c3q16m0rg6N8I7Y-102">
          <mxGeometry x="360" width="110" height="40" as="geometry">
            <mxRectangle width="110" height="40" as="alternateBounds" />
          </mxGeometry>
        </mxCell>
        <mxCell id="UZmu4c3q16m0rg6N8I7Y-108" value="" style="shape=tableRow;horizontal=0;startSize=0;swimlaneHead=0;swimlaneBody=0;top=0;left=0;bottom=0;right=0;collapsible=0;dropTarget=0;fillColor=none;points=[[0,0.5],[1,0.5]];portConstraint=eastwest;fontSize=15;fontColor=#FFFFFF;" vertex="1" parent="UZmu4c3q16m0rg6N8I7Y-101">
          <mxGeometry y="40" width="470" height="40" as="geometry" />
        </mxCell>
        <mxCell id="UZmu4c3q16m0rg6N8I7Y-109" value="1" style="shape=partialRectangle;html=1;whiteSpace=wrap;connectable=0;overflow=hidden;fillColor=none;top=0;left=0;bottom=0;right=0;pointerEvents=1;fontSize=15;fontColor=#FFFFFF;" vertex="1" parent="UZmu4c3q16m0rg6N8I7Y-108">
          <mxGeometry width="60" height="40" as="geometry">
            <mxRectangle width="60" height="40" as="alternateBounds" />
          </mxGeometry>
        </mxCell>
        <mxCell id="UZmu4c3q16m0rg6N8I7Y-110" value="巧克力" style="shape=partialRectangle;html=1;whiteSpace=wrap;connectable=0;overflow=hidden;fillColor=none;top=0;left=0;bottom=0;right=0;pointerEvents=1;fontSize=15;fontColor=#FFFFFF;" vertex="1" parent="UZmu4c3q16m0rg6N8I7Y-108">
          <mxGeometry x="60" width="100" height="40" as="geometry">
            <mxRectangle width="100" height="40" as="alternateBounds" />
          </mxGeometry>
        </mxCell>
        <mxCell id="UZmu4c3q16m0rg6N8I7Y-111" value="&lt;span style=&quot;font-family: arial, sans-serif; text-align: left; font-size: 15px;&quot;&gt;chocolate&lt;/span&gt;" style="shape=partialRectangle;html=1;whiteSpace=wrap;connectable=0;overflow=hidden;fillColor=none;top=0;left=0;bottom=0;right=0;pointerEvents=1;fontSize=15;fontColor=#FFFFFF;" vertex="1" parent="UZmu4c3q16m0rg6N8I7Y-108">
          <mxGeometry x="160" width="120" height="40" as="geometry">
            <mxRectangle width="120" height="40" as="alternateBounds" />
          </mxGeometry>
        </mxCell>
        <mxCell id="UZmu4c3q16m0rg6N8I7Y-112" value="" style="shape=partialRectangle;html=1;whiteSpace=wrap;connectable=0;overflow=hidden;fillColor=none;top=0;left=0;bottom=0;right=0;pointerEvents=1;fontSize=15;fontColor=#FFFFFF;" vertex="1" parent="UZmu4c3q16m0rg6N8I7Y-108">
          <mxGeometry x="280" width="80" height="40" as="geometry">
            <mxRectangle width="80" height="40" as="alternateBounds" />
          </mxGeometry>
        </mxCell>
        <mxCell id="UZmu4c3q16m0rg6N8I7Y-113" value="" style="shape=partialRectangle;html=1;whiteSpace=wrap;connectable=0;overflow=hidden;fillColor=none;top=0;left=0;bottom=0;right=0;pointerEvents=1;fontSize=15;fontColor=#FFFFFF;" vertex="1" parent="UZmu4c3q16m0rg6N8I7Y-108">
          <mxGeometry x="360" width="110" height="40" as="geometry">
            <mxRectangle width="110" height="40" as="alternateBounds" />
          </mxGeometry>
        </mxCell>
        <mxCell id="UZmu4c3q16m0rg6N8I7Y-114" value="" style="shape=tableRow;horizontal=0;startSize=0;swimlaneHead=0;swimlaneBody=0;top=0;left=0;bottom=0;right=0;collapsible=0;dropTarget=0;fillColor=none;points=[[0,0.5],[1,0.5]];portConstraint=eastwest;fontSize=15;fontColor=#FFFFFF;" vertex="1" parent="UZmu4c3q16m0rg6N8I7Y-101">
          <mxGeometry y="80" width="470" height="40" as="geometry" />
        </mxCell>
        <mxCell id="UZmu4c3q16m0rg6N8I7Y-115" value="2" style="shape=partialRectangle;html=1;whiteSpace=wrap;connectable=0;overflow=hidden;fillColor=none;top=0;left=0;bottom=0;right=0;pointerEvents=1;fontSize=15;fontColor=#FFFFFF;" vertex="1" parent="UZmu4c3q16m0rg6N8I7Y-114">
          <mxGeometry width="60" height="40" as="geometry">
            <mxRectangle width="60" height="40" as="alternateBounds" />
          </mxGeometry>
        </mxCell>
        <mxCell id="UZmu4c3q16m0rg6N8I7Y-116" value="香蕉" style="shape=partialRectangle;html=1;whiteSpace=wrap;connectable=0;overflow=hidden;fillColor=none;top=0;left=0;bottom=0;right=0;pointerEvents=1;fontSize=15;fontColor=#FFFFFF;" vertex="1" parent="UZmu4c3q16m0rg6N8I7Y-114">
          <mxGeometry x="60" width="100" height="40" as="geometry">
            <mxRectangle width="100" height="40" as="alternateBounds" />
          </mxGeometry>
        </mxCell>
        <mxCell id="UZmu4c3q16m0rg6N8I7Y-117" value="banana" style="shape=partialRectangle;html=1;whiteSpace=wrap;connectable=0;overflow=hidden;fillColor=none;top=0;left=0;bottom=0;right=0;pointerEvents=1;fontSize=15;fontColor=#FFFFFF;" vertex="1" parent="UZmu4c3q16m0rg6N8I7Y-114">
          <mxGeometry x="160" width="120" height="40" as="geometry">
            <mxRectangle width="120" height="40" as="alternateBounds" />
          </mxGeometry>
        </mxCell>
        <mxCell id="UZmu4c3q16m0rg6N8I7Y-118" value="" style="shape=partialRectangle;html=1;whiteSpace=wrap;connectable=0;overflow=hidden;fillColor=none;top=0;left=0;bottom=0;right=0;pointerEvents=1;fontSize=15;fontColor=#FFFFFF;" vertex="1" parent="UZmu4c3q16m0rg6N8I7Y-114">
          <mxGeometry x="280" width="80" height="40" as="geometry">
            <mxRectangle width="80" height="40" as="alternateBounds" />
          </mxGeometry>
        </mxCell>
        <mxCell id="UZmu4c3q16m0rg6N8I7Y-119" value="" style="shape=partialRectangle;html=1;whiteSpace=wrap;connectable=0;overflow=hidden;fillColor=none;top=0;left=0;bottom=0;right=0;pointerEvents=1;fontSize=15;fontColor=#FFFFFF;" vertex="1" parent="UZmu4c3q16m0rg6N8I7Y-114">
          <mxGeometry x="360" width="110" height="40" as="geometry">
            <mxRectangle width="110" height="40" as="alternateBounds" />
          </mxGeometry>
        </mxCell>
        <mxCell id="UZmu4c3q16m0rg6N8I7Y-120" value="" style="shape=tableRow;horizontal=0;startSize=0;swimlaneHead=0;swimlaneBody=0;top=0;left=0;bottom=0;right=0;collapsible=0;dropTarget=0;fillColor=none;points=[[0,0.5],[1,0.5]];portConstraint=eastwest;fontSize=15;fontColor=#FFFFFF;" vertex="1" parent="UZmu4c3q16m0rg6N8I7Y-101">
          <mxGeometry y="120" width="470" height="40" as="geometry" />
        </mxCell>
        <mxCell id="UZmu4c3q16m0rg6N8I7Y-121" value="3" style="shape=partialRectangle;html=1;whiteSpace=wrap;connectable=0;overflow=hidden;fillColor=none;top=0;left=0;bottom=0;right=0;pointerEvents=1;fontSize=15;fontColor=#FFFFFF;" vertex="1" parent="UZmu4c3q16m0rg6N8I7Y-120">
          <mxGeometry width="60" height="40" as="geometry">
            <mxRectangle width="60" height="40" as="alternateBounds" />
          </mxGeometry>
        </mxCell>
        <mxCell id="UZmu4c3q16m0rg6N8I7Y-122" value="" style="shape=partialRectangle;html=1;whiteSpace=wrap;connectable=0;overflow=hidden;fillColor=none;top=0;left=0;bottom=0;right=0;pointerEvents=1;fontSize=15;fontColor=#FFFFFF;" vertex="1" parent="UZmu4c3q16m0rg6N8I7Y-120">
          <mxGeometry x="60" width="100" height="40" as="geometry">
            <mxRectangle width="100" height="40" as="alternateBounds" />
          </mxGeometry>
        </mxCell>
        <mxCell id="UZmu4c3q16m0rg6N8I7Y-123" value="" style="shape=partialRectangle;html=1;whiteSpace=wrap;connectable=0;overflow=hidden;fillColor=none;top=0;left=0;bottom=0;right=0;pointerEvents=1;fontSize=15;fontColor=#FFFFFF;" vertex="1" parent="UZmu4c3q16m0rg6N8I7Y-120">
          <mxGeometry x="160" width="120" height="40" as="geometry">
            <mxRectangle width="120" height="40" as="alternateBounds" />
          </mxGeometry>
        </mxCell>
        <mxCell id="UZmu4c3q16m0rg6N8I7Y-124" value="" style="shape=partialRectangle;html=1;whiteSpace=wrap;connectable=0;overflow=hidden;fillColor=none;top=0;left=0;bottom=0;right=0;pointerEvents=1;fontSize=15;fontColor=#FFFFFF;" vertex="1" parent="UZmu4c3q16m0rg6N8I7Y-120">
          <mxGeometry x="280" width="80" height="40" as="geometry">
            <mxRectangle width="80" height="40" as="alternateBounds" />
          </mxGeometry>
        </mxCell>
        <mxCell id="UZmu4c3q16m0rg6N8I7Y-125" value="" style="shape=partialRectangle;html=1;whiteSpace=wrap;connectable=0;overflow=hidden;fillColor=none;top=0;left=0;bottom=0;right=0;pointerEvents=1;fontSize=15;fontColor=#FFFFFF;" vertex="1" parent="UZmu4c3q16m0rg6N8I7Y-120">
          <mxGeometry x="360" width="110" height="40" as="geometry">
            <mxRectangle width="110" height="40" as="alternateBounds" />
          </mxGeometry>
        </mxCell>
        <mxCell id="UZmu4c3q16m0rg6N8I7Y-126" value="" style="shape=table;startSize=0;container=1;collapsible=0;childLayout=tableLayout;fontSize=15;fontColor=#FFFFFF;fillColor=#FF9933;" vertex="1" parent="1">
          <mxGeometry x="640" y="1060" width="470" height="160" as="geometry" />
        </mxCell>
        <mxCell id="UZmu4c3q16m0rg6N8I7Y-127" value="" style="shape=tableRow;horizontal=0;startSize=0;swimlaneHead=0;swimlaneBody=0;top=0;left=0;bottom=0;right=0;collapsible=0;dropTarget=0;fillColor=none;points=[[0,0.5],[1,0.5]];portConstraint=eastwest;fontSize=15;fontColor=#FFFFFF;" vertex="1" parent="UZmu4c3q16m0rg6N8I7Y-126">
          <mxGeometry width="470" height="40" as="geometry" />
        </mxCell>
        <mxCell id="UZmu4c3q16m0rg6N8I7Y-128" value="id" style="shape=partialRectangle;html=1;whiteSpace=wrap;connectable=0;overflow=hidden;fillColor=none;top=0;left=0;bottom=0;right=0;pointerEvents=1;fontSize=15;fontColor=#FFFFFF;" vertex="1" parent="UZmu4c3q16m0rg6N8I7Y-127">
          <mxGeometry width="60" height="40" as="geometry">
            <mxRectangle width="60" height="40" as="alternateBounds" />
          </mxGeometry>
        </mxCell>
        <mxCell id="UZmu4c3q16m0rg6N8I7Y-129" value="goods_name" style="shape=partialRectangle;html=1;whiteSpace=wrap;connectable=0;overflow=hidden;fillColor=none;top=0;left=0;bottom=0;right=0;pointerEvents=1;fontSize=15;fontColor=#FFFFFF;" vertex="1" parent="UZmu4c3q16m0rg6N8I7Y-127">
          <mxGeometry x="60" width="100" height="40" as="geometry">
            <mxRectangle width="100" height="40" as="alternateBounds" />
          </mxGeometry>
        </mxCell>
        <mxCell id="UZmu4c3q16m0rg6N8I7Y-130" value="goods_name_en" style="shape=partialRectangle;html=1;whiteSpace=wrap;connectable=0;overflow=hidden;fillColor=none;top=0;left=0;bottom=0;right=0;pointerEvents=1;fontSize=15;fontColor=#FFFFFF;" vertex="1" parent="UZmu4c3q16m0rg6N8I7Y-127">
          <mxGeometry x="160" width="130" height="40" as="geometry">
            <mxRectangle width="130" height="40" as="alternateBounds" />
          </mxGeometry>
        </mxCell>
        <mxCell id="UZmu4c3q16m0rg6N8I7Y-131" value="goods_name_ko" style="shape=partialRectangle;html=1;whiteSpace=wrap;connectable=0;overflow=hidden;fillColor=none;top=0;left=0;bottom=0;right=0;pointerEvents=1;fontSize=15;fontColor=#FFFFFF;" vertex="1" parent="UZmu4c3q16m0rg6N8I7Y-127">
          <mxGeometry x="290" width="120" height="40" as="geometry">
            <mxRectangle width="120" height="40" as="alternateBounds" />
          </mxGeometry>
        </mxCell>
        <mxCell id="UZmu4c3q16m0rg6N8I7Y-132" value="......" style="shape=partialRectangle;html=1;whiteSpace=wrap;connectable=0;overflow=hidden;fillColor=none;top=0;left=0;bottom=0;right=0;pointerEvents=1;fontSize=15;fontColor=#FFFFFF;" vertex="1" parent="UZmu4c3q16m0rg6N8I7Y-127">
          <mxGeometry x="410" width="60" height="40" as="geometry">
            <mxRectangle width="60" height="40" as="alternateBounds" />
          </mxGeometry>
        </mxCell>
        <mxCell id="UZmu4c3q16m0rg6N8I7Y-133" value="" style="shape=tableRow;horizontal=0;startSize=0;swimlaneHead=0;swimlaneBody=0;top=0;left=0;bottom=0;right=0;collapsible=0;dropTarget=0;fillColor=none;points=[[0,0.5],[1,0.5]];portConstraint=eastwest;fontSize=15;fontColor=#FFFFFF;" vertex="1" parent="UZmu4c3q16m0rg6N8I7Y-126">
          <mxGeometry y="40" width="470" height="40" as="geometry" />
        </mxCell>
        <mxCell id="UZmu4c3q16m0rg6N8I7Y-134" value="1" style="shape=partialRectangle;html=1;whiteSpace=wrap;connectable=0;overflow=hidden;fillColor=none;top=0;left=0;bottom=0;right=0;pointerEvents=1;fontSize=15;fontColor=#FFFFFF;" vertex="1" parent="UZmu4c3q16m0rg6N8I7Y-133">
          <mxGeometry width="60" height="40" as="geometry">
            <mxRectangle width="60" height="40" as="alternateBounds" />
          </mxGeometry>
        </mxCell>
        <mxCell id="UZmu4c3q16m0rg6N8I7Y-135" value="巧克力" style="shape=partialRectangle;html=1;whiteSpace=wrap;connectable=0;overflow=hidden;fillColor=none;top=0;left=0;bottom=0;right=0;pointerEvents=1;fontSize=15;fontColor=#FFFFFF;" vertex="1" parent="UZmu4c3q16m0rg6N8I7Y-133">
          <mxGeometry x="60" width="100" height="40" as="geometry">
            <mxRectangle width="100" height="40" as="alternateBounds" />
          </mxGeometry>
        </mxCell>
        <mxCell id="UZmu4c3q16m0rg6N8I7Y-136" value="&lt;span style=&quot;font-family: arial, sans-serif; text-align: left; font-size: 15px;&quot;&gt;chocolate&lt;/span&gt;" style="shape=partialRectangle;html=1;whiteSpace=wrap;connectable=0;overflow=hidden;fillColor=none;top=0;left=0;bottom=0;right=0;pointerEvents=1;fontSize=15;fontColor=#FFFFFF;" vertex="1" parent="UZmu4c3q16m0rg6N8I7Y-133">
          <mxGeometry x="160" width="130" height="40" as="geometry">
            <mxRectangle width="130" height="40" as="alternateBounds" />
          </mxGeometry>
        </mxCell>
        <mxCell id="UZmu4c3q16m0rg6N8I7Y-137" value="&lt;span style=&quot;font-family: arial, sans-serif; text-align: left; font-size: 15px;&quot;&gt;초콜릿&lt;/span&gt;" style="shape=partialRectangle;html=1;whiteSpace=wrap;connectable=0;overflow=hidden;fillColor=none;top=0;left=0;bottom=0;right=0;pointerEvents=1;fontSize=15;fontColor=#FFFFFF;" vertex="1" parent="UZmu4c3q16m0rg6N8I7Y-133">
          <mxGeometry x="290" width="120" height="40" as="geometry">
            <mxRectangle width="120" height="40" as="alternateBounds" />
          </mxGeometry>
        </mxCell>
        <mxCell id="UZmu4c3q16m0rg6N8I7Y-138" value="" style="shape=partialRectangle;html=1;whiteSpace=wrap;connectable=0;overflow=hidden;fillColor=none;top=0;left=0;bottom=0;right=0;pointerEvents=1;fontSize=15;fontColor=#FFFFFF;" vertex="1" parent="UZmu4c3q16m0rg6N8I7Y-133">
          <mxGeometry x="410" width="60" height="40" as="geometry">
            <mxRectangle width="60" height="40" as="alternateBounds" />
          </mxGeometry>
        </mxCell>
        <mxCell id="UZmu4c3q16m0rg6N8I7Y-139" value="" style="shape=tableRow;horizontal=0;startSize=0;swimlaneHead=0;swimlaneBody=0;top=0;left=0;bottom=0;right=0;collapsible=0;dropTarget=0;fillColor=none;points=[[0,0.5],[1,0.5]];portConstraint=eastwest;fontSize=15;fontColor=#FFFFFF;" vertex="1" parent="UZmu4c3q16m0rg6N8I7Y-126">
          <mxGeometry y="80" width="470" height="40" as="geometry" />
        </mxCell>
        <mxCell id="UZmu4c3q16m0rg6N8I7Y-140" value="2" style="shape=partialRectangle;html=1;whiteSpace=wrap;connectable=0;overflow=hidden;fillColor=none;top=0;left=0;bottom=0;right=0;pointerEvents=1;fontSize=15;fontColor=#FFFFFF;" vertex="1" parent="UZmu4c3q16m0rg6N8I7Y-139">
          <mxGeometry width="60" height="40" as="geometry">
            <mxRectangle width="60" height="40" as="alternateBounds" />
          </mxGeometry>
        </mxCell>
        <mxCell id="UZmu4c3q16m0rg6N8I7Y-141" value="香蕉" style="shape=partialRectangle;html=1;whiteSpace=wrap;connectable=0;overflow=hidden;fillColor=none;top=0;left=0;bottom=0;right=0;pointerEvents=1;fontSize=15;fontColor=#FFFFFF;" vertex="1" parent="UZmu4c3q16m0rg6N8I7Y-139">
          <mxGeometry x="60" width="100" height="40" as="geometry">
            <mxRectangle width="100" height="40" as="alternateBounds" />
          </mxGeometry>
        </mxCell>
        <mxCell id="UZmu4c3q16m0rg6N8I7Y-142" value="banana" style="shape=partialRectangle;html=1;whiteSpace=wrap;connectable=0;overflow=hidden;fillColor=none;top=0;left=0;bottom=0;right=0;pointerEvents=1;fontSize=15;fontColor=#FFFFFF;" vertex="1" parent="UZmu4c3q16m0rg6N8I7Y-139">
          <mxGeometry x="160" width="130" height="40" as="geometry">
            <mxRectangle width="130" height="40" as="alternateBounds" />
          </mxGeometry>
        </mxCell>
        <mxCell id="UZmu4c3q16m0rg6N8I7Y-143" value="&lt;span style=&quot;font-family: arial, sans-serif; text-align: left; font-size: 15px;&quot;&gt;&lt;font style=&quot;font-size: 15px;&quot;&gt;바나나&lt;/font&gt;&lt;/span&gt;" style="shape=partialRectangle;html=1;whiteSpace=wrap;connectable=0;overflow=hidden;fillColor=none;top=0;left=0;bottom=0;right=0;pointerEvents=1;fontSize=15;fontColor=#FFFFFF;" vertex="1" parent="UZmu4c3q16m0rg6N8I7Y-139">
          <mxGeometry x="290" width="120" height="40" as="geometry">
            <mxRectangle width="120" height="40" as="alternateBounds" />
          </mxGeometry>
        </mxCell>
        <mxCell id="UZmu4c3q16m0rg6N8I7Y-144" value="" style="shape=partialRectangle;html=1;whiteSpace=wrap;connectable=0;overflow=hidden;fillColor=none;top=0;left=0;bottom=0;right=0;pointerEvents=1;fontSize=15;fontColor=#FFFFFF;" vertex="1" parent="UZmu4c3q16m0rg6N8I7Y-139">
          <mxGeometry x="410" width="60" height="40" as="geometry">
            <mxRectangle width="60" height="40" as="alternateBounds" />
          </mxGeometry>
        </mxCell>
        <mxCell id="UZmu4c3q16m0rg6N8I7Y-145" value="" style="shape=tableRow;horizontal=0;startSize=0;swimlaneHead=0;swimlaneBody=0;top=0;left=0;bottom=0;right=0;collapsible=0;dropTarget=0;fillColor=none;points=[[0,0.5],[1,0.5]];portConstraint=eastwest;fontSize=15;fontColor=#FFFFFF;" vertex="1" parent="UZmu4c3q16m0rg6N8I7Y-126">
          <mxGeometry y="120" width="470" height="40" as="geometry" />
        </mxCell>
        <mxCell id="UZmu4c3q16m0rg6N8I7Y-146" value="3" style="shape=partialRectangle;html=1;whiteSpace=wrap;connectable=0;overflow=hidden;fillColor=none;top=0;left=0;bottom=0;right=0;pointerEvents=1;fontSize=15;fontColor=#FFFFFF;" vertex="1" parent="UZmu4c3q16m0rg6N8I7Y-145">
          <mxGeometry width="60" height="40" as="geometry">
            <mxRectangle width="60" height="40" as="alternateBounds" />
          </mxGeometry>
        </mxCell>
        <mxCell id="UZmu4c3q16m0rg6N8I7Y-147" value="" style="shape=partialRectangle;html=1;whiteSpace=wrap;connectable=0;overflow=hidden;fillColor=none;top=0;left=0;bottom=0;right=0;pointerEvents=1;fontSize=15;fontColor=#FFFFFF;" vertex="1" parent="UZmu4c3q16m0rg6N8I7Y-145">
          <mxGeometry x="60" width="100" height="40" as="geometry">
            <mxRectangle width="100" height="40" as="alternateBounds" />
          </mxGeometry>
        </mxCell>
        <mxCell id="UZmu4c3q16m0rg6N8I7Y-148" value="" style="shape=partialRectangle;html=1;whiteSpace=wrap;connectable=0;overflow=hidden;fillColor=none;top=0;left=0;bottom=0;right=0;pointerEvents=1;fontSize=15;fontColor=#FFFFFF;" vertex="1" parent="UZmu4c3q16m0rg6N8I7Y-145">
          <mxGeometry x="160" width="130" height="40" as="geometry">
            <mxRectangle width="130" height="40" as="alternateBounds" />
          </mxGeometry>
        </mxCell>
        <mxCell id="UZmu4c3q16m0rg6N8I7Y-149" value="" style="shape=partialRectangle;html=1;whiteSpace=wrap;connectable=0;overflow=hidden;fillColor=none;top=0;left=0;bottom=0;right=0;pointerEvents=1;fontSize=15;fontColor=#FFFFFF;" vertex="1" parent="UZmu4c3q16m0rg6N8I7Y-145">
          <mxGeometry x="290" width="120" height="40" as="geometry">
            <mxRectangle width="120" height="40" as="alternateBounds" />
          </mxGeometry>
        </mxCell>
        <mxCell id="UZmu4c3q16m0rg6N8I7Y-150" value="" style="shape=partialRectangle;html=1;whiteSpace=wrap;connectable=0;overflow=hidden;fillColor=none;top=0;left=0;bottom=0;right=0;pointerEvents=1;fontSize=15;fontColor=#FFFFFF;" vertex="1" parent="UZmu4c3q16m0rg6N8I7Y-145">
          <mxGeometry x="410" width="60" height="40" as="geometry">
            <mxRectangle width="60" height="40" as="alternateBounds" />
          </mxGeometry>
        </mxCell>
        <mxCell id="UZmu4c3q16m0rg6N8I7Y-151" style="edgeStyle=orthogonalEdgeStyle;rounded=0;orthogonalLoop=1;jettySize=auto;html=1;exitX=1;exitY=0.5;exitDx=0;exitDy=0;entryX=0;entryY=0.5;entryDx=0;entryDy=0;fontSize=15;fontColor=#FFFFFF;" edge="1" parent="1" source="UZmu4c3q16m0rg6N8I7Y-114" target="UZmu4c3q16m0rg6N8I7Y-139">
          <mxGeometry relative="1" as="geometry" />
        </mxCell>
        <mxCell id="UZmu4c3q16m0rg6N8I7Y-173" value="" style="shape=table;startSize=0;container=1;collapsible=0;childLayout=tableLayout;fontSize=15;fontColor=#FFFFFF;fillColor=#FF9933;" vertex="1" parent="1">
          <mxGeometry x="100" y="1320" width="240" height="160" as="geometry" />
        </mxCell>
        <mxCell id="UZmu4c3q16m0rg6N8I7Y-174" value="" style="shape=tableRow;horizontal=0;startSize=0;swimlaneHead=0;swimlaneBody=0;top=0;left=0;bottom=0;right=0;collapsible=0;dropTarget=0;fillColor=none;points=[[0,0.5],[1,0.5]];portConstraint=eastwest;fontSize=15;fontColor=#FFFFFF;" vertex="1" parent="UZmu4c3q16m0rg6N8I7Y-173">
          <mxGeometry width="240" height="40" as="geometry" />
        </mxCell>
        <mxCell id="UZmu4c3q16m0rg6N8I7Y-175" value="id" style="shape=partialRectangle;html=1;whiteSpace=wrap;connectable=0;overflow=hidden;fillColor=none;top=0;left=0;bottom=0;right=0;pointerEvents=1;fontSize=15;fontColor=#FFFFFF;" vertex="1" parent="UZmu4c3q16m0rg6N8I7Y-174">
          <mxGeometry width="60" height="40" as="geometry">
            <mxRectangle width="60" height="40" as="alternateBounds" />
          </mxGeometry>
        </mxCell>
        <mxCell id="UZmu4c3q16m0rg6N8I7Y-176" value="goods_id" style="shape=partialRectangle;html=1;whiteSpace=wrap;connectable=0;overflow=hidden;fillColor=none;top=0;left=0;bottom=0;right=0;pointerEvents=1;fontSize=15;fontColor=#FFFFFF;" vertex="1" parent="UZmu4c3q16m0rg6N8I7Y-174">
          <mxGeometry x="60" width="90" height="40" as="geometry">
            <mxRectangle width="90" height="40" as="alternateBounds" />
          </mxGeometry>
        </mxCell>
        <mxCell id="UZmu4c3q16m0rg6N8I7Y-177" value="cat_id" style="shape=partialRectangle;html=1;whiteSpace=wrap;connectable=0;overflow=hidden;fillColor=none;top=0;left=0;bottom=0;right=0;pointerEvents=1;fontSize=15;fontColor=#FFFFFF;" vertex="1" parent="UZmu4c3q16m0rg6N8I7Y-174">
          <mxGeometry x="150" width="90" height="40" as="geometry">
            <mxRectangle width="90" height="40" as="alternateBounds" />
          </mxGeometry>
        </mxCell>
        <mxCell id="UZmu4c3q16m0rg6N8I7Y-178" value="" style="shape=tableRow;horizontal=0;startSize=0;swimlaneHead=0;swimlaneBody=0;top=0;left=0;bottom=0;right=0;collapsible=0;dropTarget=0;fillColor=none;points=[[0,0.5],[1,0.5]];portConstraint=eastwest;fontSize=15;fontColor=#FFFFFF;" vertex="1" parent="UZmu4c3q16m0rg6N8I7Y-173">
          <mxGeometry y="40" width="240" height="40" as="geometry" />
        </mxCell>
        <mxCell id="UZmu4c3q16m0rg6N8I7Y-179" value="1" style="shape=partialRectangle;html=1;whiteSpace=wrap;connectable=0;overflow=hidden;fillColor=none;top=0;left=0;bottom=0;right=0;pointerEvents=1;fontSize=15;fontColor=#FFFFFF;" vertex="1" parent="UZmu4c3q16m0rg6N8I7Y-178">
          <mxGeometry width="60" height="40" as="geometry">
            <mxRectangle width="60" height="40" as="alternateBounds" />
          </mxGeometry>
        </mxCell>
        <mxCell id="UZmu4c3q16m0rg6N8I7Y-180" value="1123" style="shape=partialRectangle;html=1;whiteSpace=wrap;connectable=0;overflow=hidden;fillColor=none;top=0;left=0;bottom=0;right=0;pointerEvents=1;fontSize=15;fontColor=#FFFFFF;" vertex="1" parent="UZmu4c3q16m0rg6N8I7Y-178">
          <mxGeometry x="60" width="90" height="40" as="geometry">
            <mxRectangle width="90" height="40" as="alternateBounds" />
          </mxGeometry>
        </mxCell>
        <mxCell id="UZmu4c3q16m0rg6N8I7Y-181" value="6" style="shape=partialRectangle;html=1;whiteSpace=wrap;connectable=0;overflow=hidden;fillColor=none;top=0;left=0;bottom=0;right=0;pointerEvents=1;fontSize=15;fontColor=#FFFFFF;" vertex="1" parent="UZmu4c3q16m0rg6N8I7Y-178">
          <mxGeometry x="150" width="90" height="40" as="geometry">
            <mxRectangle width="90" height="40" as="alternateBounds" />
          </mxGeometry>
        </mxCell>
        <mxCell id="UZmu4c3q16m0rg6N8I7Y-182" value="" style="shape=tableRow;horizontal=0;startSize=0;swimlaneHead=0;swimlaneBody=0;top=0;left=0;bottom=0;right=0;collapsible=0;dropTarget=0;fillColor=none;points=[[0,0.5],[1,0.5]];portConstraint=eastwest;fontSize=15;fontColor=#FFFFFF;" vertex="1" parent="UZmu4c3q16m0rg6N8I7Y-173">
          <mxGeometry y="80" width="240" height="40" as="geometry" />
        </mxCell>
        <mxCell id="UZmu4c3q16m0rg6N8I7Y-183" value="2" style="shape=partialRectangle;html=1;whiteSpace=wrap;connectable=0;overflow=hidden;fillColor=none;top=0;left=0;bottom=0;right=0;pointerEvents=1;fontSize=15;fontColor=#FFFFFF;" vertex="1" parent="UZmu4c3q16m0rg6N8I7Y-182">
          <mxGeometry width="60" height="40" as="geometry">
            <mxRectangle width="60" height="40" as="alternateBounds" />
          </mxGeometry>
        </mxCell>
        <mxCell id="UZmu4c3q16m0rg6N8I7Y-184" value="1124" style="shape=partialRectangle;html=1;whiteSpace=wrap;connectable=0;overflow=hidden;fillColor=none;top=0;left=0;bottom=0;right=0;pointerEvents=1;fontSize=15;fontColor=#FFFFFF;" vertex="1" parent="UZmu4c3q16m0rg6N8I7Y-182">
          <mxGeometry x="60" width="90" height="40" as="geometry">
            <mxRectangle width="90" height="40" as="alternateBounds" />
          </mxGeometry>
        </mxCell>
        <mxCell id="UZmu4c3q16m0rg6N8I7Y-185" value="7" style="shape=partialRectangle;html=1;whiteSpace=wrap;connectable=0;overflow=hidden;fillColor=none;top=0;left=0;bottom=0;right=0;pointerEvents=1;fontSize=15;fontColor=#FFFFFF;" vertex="1" parent="UZmu4c3q16m0rg6N8I7Y-182">
          <mxGeometry x="150" width="90" height="40" as="geometry">
            <mxRectangle width="90" height="40" as="alternateBounds" />
          </mxGeometry>
        </mxCell>
        <mxCell id="UZmu4c3q16m0rg6N8I7Y-186" value="" style="shape=tableRow;horizontal=0;startSize=0;swimlaneHead=0;swimlaneBody=0;top=0;left=0;bottom=0;right=0;collapsible=0;dropTarget=0;fillColor=none;points=[[0,0.5],[1,0.5]];portConstraint=eastwest;fontSize=15;fontColor=#FFFFFF;" vertex="1" parent="UZmu4c3q16m0rg6N8I7Y-173">
          <mxGeometry y="120" width="240" height="40" as="geometry" />
        </mxCell>
        <mxCell id="UZmu4c3q16m0rg6N8I7Y-187" value="3" style="shape=partialRectangle;html=1;whiteSpace=wrap;connectable=0;overflow=hidden;fillColor=none;top=0;left=0;bottom=0;right=0;pointerEvents=1;fontSize=15;fontColor=#FFFFFF;" vertex="1" parent="UZmu4c3q16m0rg6N8I7Y-186">
          <mxGeometry width="60" height="40" as="geometry">
            <mxRectangle width="60" height="40" as="alternateBounds" />
          </mxGeometry>
        </mxCell>
        <mxCell id="UZmu4c3q16m0rg6N8I7Y-188" value="1125" style="shape=partialRectangle;html=1;whiteSpace=wrap;connectable=0;overflow=hidden;fillColor=none;top=0;left=0;bottom=0;right=0;pointerEvents=1;fontSize=15;fontColor=#FFFFFF;" vertex="1" parent="UZmu4c3q16m0rg6N8I7Y-186">
          <mxGeometry x="60" width="90" height="40" as="geometry">
            <mxRectangle width="90" height="40" as="alternateBounds" />
          </mxGeometry>
        </mxCell>
        <mxCell id="UZmu4c3q16m0rg6N8I7Y-189" value="8" style="shape=partialRectangle;html=1;whiteSpace=wrap;connectable=0;overflow=hidden;fillColor=none;top=0;left=0;bottom=0;right=0;pointerEvents=1;fontSize=15;fontColor=#FFFFFF;" vertex="1" parent="UZmu4c3q16m0rg6N8I7Y-186">
          <mxGeometry x="150" width="90" height="40" as="geometry">
            <mxRectangle width="90" height="40" as="alternateBounds" />
          </mxGeometry>
        </mxCell>
        <mxCell id="UZmu4c3q16m0rg6N8I7Y-190" value="" style="shape=table;startSize=0;container=1;collapsible=0;childLayout=tableLayout;fontSize=15;fontColor=#FFFFFF;fillColor=#FF9933;" vertex="1" parent="1">
          <mxGeometry x="400" y="1320" width="330" height="160" as="geometry" />
        </mxCell>
        <mxCell id="UZmu4c3q16m0rg6N8I7Y-191" value="" style="shape=tableRow;horizontal=0;startSize=0;swimlaneHead=0;swimlaneBody=0;top=0;left=0;bottom=0;right=0;collapsible=0;dropTarget=0;fillColor=none;points=[[0,0.5],[1,0.5]];portConstraint=eastwest;fontSize=15;fontColor=#FFFFFF;" vertex="1" parent="UZmu4c3q16m0rg6N8I7Y-190">
          <mxGeometry width="330" height="40" as="geometry" />
        </mxCell>
        <mxCell id="UZmu4c3q16m0rg6N8I7Y-192" value="id" style="shape=partialRectangle;html=1;whiteSpace=wrap;connectable=0;overflow=hidden;fillColor=none;top=0;left=0;bottom=0;right=0;pointerEvents=1;fontSize=15;fontColor=#FFFFFF;" vertex="1" parent="UZmu4c3q16m0rg6N8I7Y-191">
          <mxGeometry width="60" height="40" as="geometry">
            <mxRectangle width="60" height="40" as="alternateBounds" />
          </mxGeometry>
        </mxCell>
        <mxCell id="UZmu4c3q16m0rg6N8I7Y-193" value="goods_id" style="shape=partialRectangle;html=1;whiteSpace=wrap;connectable=0;overflow=hidden;fillColor=none;top=0;left=0;bottom=0;right=0;pointerEvents=1;fontSize=15;fontColor=#FFFFFF;" vertex="1" parent="UZmu4c3q16m0rg6N8I7Y-191">
          <mxGeometry x="60" width="80" height="40" as="geometry">
            <mxRectangle width="80" height="40" as="alternateBounds" />
          </mxGeometry>
        </mxCell>
        <mxCell id="UZmu4c3q16m0rg6N8I7Y-194" value="goods_name" style="shape=partialRectangle;html=1;whiteSpace=wrap;connectable=0;overflow=hidden;fillColor=none;top=0;left=0;bottom=0;right=0;pointerEvents=1;fontSize=15;fontColor=#FFFFFF;" vertex="1" parent="UZmu4c3q16m0rg6N8I7Y-191">
          <mxGeometry x="140" width="100" height="40" as="geometry">
            <mxRectangle width="100" height="40" as="alternateBounds" />
          </mxGeometry>
        </mxCell>
        <mxCell id="UZmu4c3q16m0rg6N8I7Y-195" value="lang_id" style="shape=partialRectangle;html=1;whiteSpace=wrap;connectable=0;overflow=hidden;fillColor=none;top=0;left=0;bottom=0;right=0;pointerEvents=1;fontSize=15;fontColor=#FFFFFF;" vertex="1" parent="UZmu4c3q16m0rg6N8I7Y-191">
          <mxGeometry x="240" width="90" height="40" as="geometry">
            <mxRectangle width="90" height="40" as="alternateBounds" />
          </mxGeometry>
        </mxCell>
        <mxCell id="UZmu4c3q16m0rg6N8I7Y-196" value="" style="shape=tableRow;horizontal=0;startSize=0;swimlaneHead=0;swimlaneBody=0;top=0;left=0;bottom=0;right=0;collapsible=0;dropTarget=0;fillColor=none;points=[[0,0.5],[1,0.5]];portConstraint=eastwest;fontSize=15;fontColor=#FFFFFF;" vertex="1" parent="UZmu4c3q16m0rg6N8I7Y-190">
          <mxGeometry y="40" width="330" height="40" as="geometry" />
        </mxCell>
        <mxCell id="UZmu4c3q16m0rg6N8I7Y-197" value="1" style="shape=partialRectangle;html=1;whiteSpace=wrap;connectable=0;overflow=hidden;fillColor=none;top=0;left=0;bottom=0;right=0;pointerEvents=1;fontSize=15;fontColor=#FFFFFF;" vertex="1" parent="UZmu4c3q16m0rg6N8I7Y-196">
          <mxGeometry width="60" height="40" as="geometry">
            <mxRectangle width="60" height="40" as="alternateBounds" />
          </mxGeometry>
        </mxCell>
        <mxCell id="UZmu4c3q16m0rg6N8I7Y-198" value="1123" style="shape=partialRectangle;html=1;whiteSpace=wrap;connectable=0;overflow=hidden;fillColor=none;top=0;left=0;bottom=0;right=0;pointerEvents=1;fontSize=15;fontColor=#FFFFFF;" vertex="1" parent="UZmu4c3q16m0rg6N8I7Y-196">
          <mxGeometry x="60" width="80" height="40" as="geometry">
            <mxRectangle width="80" height="40" as="alternateBounds" />
          </mxGeometry>
        </mxCell>
        <mxCell id="UZmu4c3q16m0rg6N8I7Y-199" value="巧克力" style="shape=partialRectangle;html=1;whiteSpace=wrap;connectable=0;overflow=hidden;fillColor=none;top=0;left=0;bottom=0;right=0;pointerEvents=1;fontSize=15;fontColor=#FFFFFF;" vertex="1" parent="UZmu4c3q16m0rg6N8I7Y-196">
          <mxGeometry x="140" width="100" height="40" as="geometry">
            <mxRectangle width="100" height="40" as="alternateBounds" />
          </mxGeometry>
        </mxCell>
        <mxCell id="UZmu4c3q16m0rg6N8I7Y-200" value="0" style="shape=partialRectangle;html=1;whiteSpace=wrap;connectable=0;overflow=hidden;fillColor=none;top=0;left=0;bottom=0;right=0;pointerEvents=1;fontSize=15;fontColor=#FFFFFF;" vertex="1" parent="UZmu4c3q16m0rg6N8I7Y-196">
          <mxGeometry x="240" width="90" height="40" as="geometry">
            <mxRectangle width="90" height="40" as="alternateBounds" />
          </mxGeometry>
        </mxCell>
        <mxCell id="UZmu4c3q16m0rg6N8I7Y-201" value="" style="shape=tableRow;horizontal=0;startSize=0;swimlaneHead=0;swimlaneBody=0;top=0;left=0;bottom=0;right=0;collapsible=0;dropTarget=0;fillColor=none;points=[[0,0.5],[1,0.5]];portConstraint=eastwest;fontSize=15;fontColor=#FFFFFF;" vertex="1" parent="UZmu4c3q16m0rg6N8I7Y-190">
          <mxGeometry y="80" width="330" height="40" as="geometry" />
        </mxCell>
        <mxCell id="UZmu4c3q16m0rg6N8I7Y-202" value="2" style="shape=partialRectangle;html=1;whiteSpace=wrap;connectable=0;overflow=hidden;fillColor=none;top=0;left=0;bottom=0;right=0;pointerEvents=1;fontSize=15;fontColor=#FFFFFF;" vertex="1" parent="UZmu4c3q16m0rg6N8I7Y-201">
          <mxGeometry width="60" height="40" as="geometry">
            <mxRectangle width="60" height="40" as="alternateBounds" />
          </mxGeometry>
        </mxCell>
        <mxCell id="UZmu4c3q16m0rg6N8I7Y-203" value="1123" style="shape=partialRectangle;html=1;whiteSpace=wrap;connectable=0;overflow=hidden;fillColor=none;top=0;left=0;bottom=0;right=0;pointerEvents=1;fontSize=15;fontColor=#FFFFFF;" vertex="1" parent="UZmu4c3q16m0rg6N8I7Y-201">
          <mxGeometry x="60" width="80" height="40" as="geometry">
            <mxRectangle width="80" height="40" as="alternateBounds" />
          </mxGeometry>
        </mxCell>
        <mxCell id="UZmu4c3q16m0rg6N8I7Y-204" value="&lt;span style=&quot;font-family: &amp;#34;arial&amp;#34; , sans-serif ; text-align: left&quot;&gt;chocolate&lt;/span&gt;" style="shape=partialRectangle;html=1;whiteSpace=wrap;connectable=0;overflow=hidden;fillColor=none;top=0;left=0;bottom=0;right=0;pointerEvents=1;fontSize=15;fontColor=#FFFFFF;" vertex="1" parent="UZmu4c3q16m0rg6N8I7Y-201">
          <mxGeometry x="140" width="100" height="40" as="geometry">
            <mxRectangle width="100" height="40" as="alternateBounds" />
          </mxGeometry>
        </mxCell>
        <mxCell id="UZmu4c3q16m0rg6N8I7Y-205" value="1" style="shape=partialRectangle;html=1;whiteSpace=wrap;connectable=0;overflow=hidden;fillColor=none;top=0;left=0;bottom=0;right=0;pointerEvents=1;fontSize=15;fontColor=#FFFFFF;" vertex="1" parent="UZmu4c3q16m0rg6N8I7Y-201">
          <mxGeometry x="240" width="90" height="40" as="geometry">
            <mxRectangle width="90" height="40" as="alternateBounds" />
          </mxGeometry>
        </mxCell>
        <mxCell id="UZmu4c3q16m0rg6N8I7Y-206" value="" style="shape=tableRow;horizontal=0;startSize=0;swimlaneHead=0;swimlaneBody=0;top=0;left=0;bottom=0;right=0;collapsible=0;dropTarget=0;fillColor=none;points=[[0,0.5],[1,0.5]];portConstraint=eastwest;fontSize=15;fontColor=#FFFFFF;" vertex="1" parent="UZmu4c3q16m0rg6N8I7Y-190">
          <mxGeometry y="120" width="330" height="40" as="geometry" />
        </mxCell>
        <mxCell id="UZmu4c3q16m0rg6N8I7Y-207" value="3" style="shape=partialRectangle;html=1;whiteSpace=wrap;connectable=0;overflow=hidden;fillColor=none;top=0;left=0;bottom=0;right=0;pointerEvents=1;fontSize=15;fontColor=#FFFFFF;" vertex="1" parent="UZmu4c3q16m0rg6N8I7Y-206">
          <mxGeometry width="60" height="40" as="geometry">
            <mxRectangle width="60" height="40" as="alternateBounds" />
          </mxGeometry>
        </mxCell>
        <mxCell id="UZmu4c3q16m0rg6N8I7Y-208" value="1124" style="shape=partialRectangle;html=1;whiteSpace=wrap;connectable=0;overflow=hidden;fillColor=none;top=0;left=0;bottom=0;right=0;pointerEvents=1;fontSize=15;fontColor=#FFFFFF;" vertex="1" parent="UZmu4c3q16m0rg6N8I7Y-206">
          <mxGeometry x="60" width="80" height="40" as="geometry">
            <mxRectangle width="80" height="40" as="alternateBounds" />
          </mxGeometry>
        </mxCell>
        <mxCell id="UZmu4c3q16m0rg6N8I7Y-209" value="&lt;span&gt;香蕉&lt;/span&gt;" style="shape=partialRectangle;html=1;whiteSpace=wrap;connectable=0;overflow=hidden;fillColor=none;top=0;left=0;bottom=0;right=0;pointerEvents=1;fontSize=15;fontColor=#FFFFFF;" vertex="1" parent="UZmu4c3q16m0rg6N8I7Y-206">
          <mxGeometry x="140" width="100" height="40" as="geometry">
            <mxRectangle width="100" height="40" as="alternateBounds" />
          </mxGeometry>
        </mxCell>
        <mxCell id="UZmu4c3q16m0rg6N8I7Y-210" value="0" style="shape=partialRectangle;html=1;whiteSpace=wrap;connectable=0;overflow=hidden;fillColor=none;top=0;left=0;bottom=0;right=0;pointerEvents=1;fontSize=15;fontColor=#FFFFFF;" vertex="1" parent="UZmu4c3q16m0rg6N8I7Y-206">
          <mxGeometry x="240" width="90" height="40" as="geometry">
            <mxRectangle width="90" height="40" as="alternateBounds" />
          </mxGeometry>
        </mxCell>
        <mxCell id="UZmu4c3q16m0rg6N8I7Y-211" value="" style="shape=table;startSize=0;container=1;collapsible=0;childLayout=tableLayout;fontSize=15;fontColor=#FFFFFF;fillColor=#FF9933;" vertex="1" parent="1">
          <mxGeometry x="815" y="1320" width="185" height="160" as="geometry" />
        </mxCell>
        <mxCell id="UZmu4c3q16m0rg6N8I7Y-212" value="" style="shape=tableRow;horizontal=0;startSize=0;swimlaneHead=0;swimlaneBody=0;top=0;left=0;bottom=0;right=0;collapsible=0;dropTarget=0;fillColor=none;points=[[0,0.5],[1,0.5]];portConstraint=eastwest;fontSize=15;fontColor=#FFFFFF;" vertex="1" parent="UZmu4c3q16m0rg6N8I7Y-211">
          <mxGeometry width="185" height="40" as="geometry" />
        </mxCell>
        <mxCell id="UZmu4c3q16m0rg6N8I7Y-213" value="id" style="shape=partialRectangle;html=1;whiteSpace=wrap;connectable=0;overflow=hidden;fillColor=none;top=0;left=0;bottom=0;right=0;pointerEvents=1;fontSize=15;fontColor=#FFFFFF;" vertex="1" parent="UZmu4c3q16m0rg6N8I7Y-212">
          <mxGeometry width="60" height="40" as="geometry">
            <mxRectangle width="60" height="40" as="alternateBounds" />
          </mxGeometry>
        </mxCell>
        <mxCell id="UZmu4c3q16m0rg6N8I7Y-214" value="language_name" style="shape=partialRectangle;html=1;whiteSpace=wrap;connectable=0;overflow=hidden;fillColor=none;top=0;left=0;bottom=0;right=0;pointerEvents=1;fontSize=15;fontColor=#FFFFFF;" vertex="1" parent="UZmu4c3q16m0rg6N8I7Y-212">
          <mxGeometry x="60" width="125" height="40" as="geometry">
            <mxRectangle width="125" height="40" as="alternateBounds" />
          </mxGeometry>
        </mxCell>
        <mxCell id="UZmu4c3q16m0rg6N8I7Y-215" value="" style="shape=tableRow;horizontal=0;startSize=0;swimlaneHead=0;swimlaneBody=0;top=0;left=0;bottom=0;right=0;collapsible=0;dropTarget=0;fillColor=none;points=[[0,0.5],[1,0.5]];portConstraint=eastwest;fontSize=15;fontColor=#FFFFFF;" vertex="1" parent="UZmu4c3q16m0rg6N8I7Y-211">
          <mxGeometry y="40" width="185" height="40" as="geometry" />
        </mxCell>
        <mxCell id="UZmu4c3q16m0rg6N8I7Y-216" value="0" style="shape=partialRectangle;html=1;whiteSpace=wrap;connectable=0;overflow=hidden;fillColor=none;top=0;left=0;bottom=0;right=0;pointerEvents=1;fontSize=15;fontColor=#FFFFFF;" vertex="1" parent="UZmu4c3q16m0rg6N8I7Y-215">
          <mxGeometry width="60" height="40" as="geometry">
            <mxRectangle width="60" height="40" as="alternateBounds" />
          </mxGeometry>
        </mxCell>
        <mxCell id="UZmu4c3q16m0rg6N8I7Y-217" value="zh-CN" style="shape=partialRectangle;html=1;whiteSpace=wrap;connectable=0;overflow=hidden;fillColor=none;top=0;left=0;bottom=0;right=0;pointerEvents=1;fontSize=15;fontColor=#FFFFFF;" vertex="1" parent="UZmu4c3q16m0rg6N8I7Y-215">
          <mxGeometry x="60" width="125" height="40" as="geometry">
            <mxRectangle width="125" height="40" as="alternateBounds" />
          </mxGeometry>
        </mxCell>
        <mxCell id="UZmu4c3q16m0rg6N8I7Y-218" value="" style="shape=tableRow;horizontal=0;startSize=0;swimlaneHead=0;swimlaneBody=0;top=0;left=0;bottom=0;right=0;collapsible=0;dropTarget=0;fillColor=none;points=[[0,0.5],[1,0.5]];portConstraint=eastwest;fontSize=15;fontColor=#FFFFFF;" vertex="1" parent="UZmu4c3q16m0rg6N8I7Y-211">
          <mxGeometry y="80" width="185" height="40" as="geometry" />
        </mxCell>
        <mxCell id="UZmu4c3q16m0rg6N8I7Y-219" value="1" style="shape=partialRectangle;html=1;whiteSpace=wrap;connectable=0;overflow=hidden;fillColor=none;top=0;left=0;bottom=0;right=0;pointerEvents=1;fontSize=15;fontColor=#FFFFFF;" vertex="1" parent="UZmu4c3q16m0rg6N8I7Y-218">
          <mxGeometry width="60" height="40" as="geometry">
            <mxRectangle width="60" height="40" as="alternateBounds" />
          </mxGeometry>
        </mxCell>
        <mxCell id="UZmu4c3q16m0rg6N8I7Y-220" value="en" style="shape=partialRectangle;html=1;whiteSpace=wrap;connectable=0;overflow=hidden;fillColor=none;top=0;left=0;bottom=0;right=0;pointerEvents=1;fontSize=15;fontColor=#FFFFFF;" vertex="1" parent="UZmu4c3q16m0rg6N8I7Y-218">
          <mxGeometry x="60" width="125" height="40" as="geometry">
            <mxRectangle width="125" height="40" as="alternateBounds" />
          </mxGeometry>
        </mxCell>
        <mxCell id="UZmu4c3q16m0rg6N8I7Y-221" value="" style="shape=tableRow;horizontal=0;startSize=0;swimlaneHead=0;swimlaneBody=0;top=0;left=0;bottom=0;right=0;collapsible=0;dropTarget=0;fillColor=none;points=[[0,0.5],[1,0.5]];portConstraint=eastwest;fontSize=15;fontColor=#FFFFFF;" vertex="1" parent="UZmu4c3q16m0rg6N8I7Y-211">
          <mxGeometry y="120" width="185" height="40" as="geometry" />
        </mxCell>
        <mxCell id="UZmu4c3q16m0rg6N8I7Y-222" value="2" style="shape=partialRectangle;html=1;whiteSpace=wrap;connectable=0;overflow=hidden;fillColor=none;top=0;left=0;bottom=0;right=0;pointerEvents=1;fontSize=15;fontColor=#FFFFFF;" vertex="1" parent="UZmu4c3q16m0rg6N8I7Y-221">
          <mxGeometry width="60" height="40" as="geometry">
            <mxRectangle width="60" height="40" as="alternateBounds" />
          </mxGeometry>
        </mxCell>
        <mxCell id="UZmu4c3q16m0rg6N8I7Y-223" value="ja" style="shape=partialRectangle;html=1;whiteSpace=wrap;connectable=0;overflow=hidden;fillColor=none;top=0;left=0;bottom=0;right=0;pointerEvents=1;fontSize=15;fontColor=#FFFFFF;" vertex="1" parent="UZmu4c3q16m0rg6N8I7Y-221">
          <mxGeometry x="60" width="125" height="40" as="geometry">
            <mxRectangle width="125" height="40" as="alternateBounds" />
          </mxGeometry>
        </mxCell>
        <mxCell id="UZmu4c3q16m0rg6N8I7Y-226" value="" style="shape=table;startSize=0;container=1;collapsible=0;childLayout=tableLayout;fontSize=15;fontColor=#FFFFFF;fillColor=#FF9933;" vertex="1" parent="1">
          <mxGeometry x="90" y="1570" width="470" height="160" as="geometry" />
        </mxCell>
        <mxCell id="UZmu4c3q16m0rg6N8I7Y-227" value="" style="shape=tableRow;horizontal=0;startSize=0;swimlaneHead=0;swimlaneBody=0;top=0;left=0;bottom=0;right=0;collapsible=0;dropTarget=0;fillColor=none;points=[[0,0.5],[1,0.5]];portConstraint=eastwest;fontSize=15;fontColor=#FFFFFF;" vertex="1" parent="UZmu4c3q16m0rg6N8I7Y-226">
          <mxGeometry width="470" height="40" as="geometry" />
        </mxCell>
        <mxCell id="UZmu4c3q16m0rg6N8I7Y-228" value="id" style="shape=partialRectangle;html=1;whiteSpace=wrap;connectable=0;overflow=hidden;fillColor=none;top=0;left=0;bottom=0;right=0;pointerEvents=1;fontSize=15;fontColor=#FFFFFF;" vertex="1" parent="UZmu4c3q16m0rg6N8I7Y-227">
          <mxGeometry width="60" height="40" as="geometry">
            <mxRectangle width="60" height="40" as="alternateBounds" />
          </mxGeometry>
        </mxCell>
        <mxCell id="UZmu4c3q16m0rg6N8I7Y-229" value="goods_name" style="shape=partialRectangle;html=1;whiteSpace=wrap;connectable=0;overflow=hidden;fillColor=none;top=0;left=0;bottom=0;right=0;pointerEvents=1;fontSize=15;fontColor=#FFFFFF;" vertex="1" parent="UZmu4c3q16m0rg6N8I7Y-227">
          <mxGeometry x="60" width="100" height="40" as="geometry">
            <mxRectangle width="100" height="40" as="alternateBounds" />
          </mxGeometry>
        </mxCell>
        <mxCell id="UZmu4c3q16m0rg6N8I7Y-230" value="lang_dict_id" style="shape=partialRectangle;html=1;whiteSpace=wrap;connectable=0;overflow=hidden;fillColor=none;top=0;left=0;bottom=0;right=0;pointerEvents=1;fontSize=15;fontColor=#FFFFFF;" vertex="1" parent="UZmu4c3q16m0rg6N8I7Y-227">
          <mxGeometry x="160" width="140" height="40" as="geometry">
            <mxRectangle width="140" height="40" as="alternateBounds" />
          </mxGeometry>
        </mxCell>
        <mxCell id="UZmu4c3q16m0rg6N8I7Y-231" value="" style="shape=partialRectangle;html=1;whiteSpace=wrap;connectable=0;overflow=hidden;fillColor=none;top=0;left=0;bottom=0;right=0;pointerEvents=1;fontSize=15;fontColor=#FFFFFF;" vertex="1" parent="UZmu4c3q16m0rg6N8I7Y-227">
          <mxGeometry x="300" width="60" height="40" as="geometry">
            <mxRectangle width="60" height="40" as="alternateBounds" />
          </mxGeometry>
        </mxCell>
        <mxCell id="UZmu4c3q16m0rg6N8I7Y-232" value="" style="shape=partialRectangle;html=1;whiteSpace=wrap;connectable=0;overflow=hidden;fillColor=none;top=0;left=0;bottom=0;right=0;pointerEvents=1;fontSize=15;fontColor=#FFFFFF;" vertex="1" parent="UZmu4c3q16m0rg6N8I7Y-227">
          <mxGeometry x="360" width="110" height="40" as="geometry">
            <mxRectangle width="110" height="40" as="alternateBounds" />
          </mxGeometry>
        </mxCell>
        <mxCell id="UZmu4c3q16m0rg6N8I7Y-233" value="" style="shape=tableRow;horizontal=0;startSize=0;swimlaneHead=0;swimlaneBody=0;top=0;left=0;bottom=0;right=0;collapsible=0;dropTarget=0;fillColor=none;points=[[0,0.5],[1,0.5]];portConstraint=eastwest;fontSize=15;fontColor=#FFFFFF;" vertex="1" parent="UZmu4c3q16m0rg6N8I7Y-226">
          <mxGeometry y="40" width="470" height="40" as="geometry" />
        </mxCell>
        <mxCell id="UZmu4c3q16m0rg6N8I7Y-234" value="1" style="shape=partialRectangle;html=1;whiteSpace=wrap;connectable=0;overflow=hidden;fillColor=none;top=0;left=0;bottom=0;right=0;pointerEvents=1;fontSize=15;fontColor=#FFFFFF;" vertex="1" parent="UZmu4c3q16m0rg6N8I7Y-233">
          <mxGeometry width="60" height="40" as="geometry">
            <mxRectangle width="60" height="40" as="alternateBounds" />
          </mxGeometry>
        </mxCell>
        <mxCell id="UZmu4c3q16m0rg6N8I7Y-235" value="巧克力" style="shape=partialRectangle;html=1;whiteSpace=wrap;connectable=0;overflow=hidden;fillColor=none;top=0;left=0;bottom=0;right=0;pointerEvents=1;fontSize=15;fontColor=#FFFFFF;" vertex="1" parent="UZmu4c3q16m0rg6N8I7Y-233">
          <mxGeometry x="60" width="100" height="40" as="geometry">
            <mxRectangle width="100" height="40" as="alternateBounds" />
          </mxGeometry>
        </mxCell>
        <mxCell id="UZmu4c3q16m0rg6N8I7Y-236" value="123" style="shape=partialRectangle;html=1;whiteSpace=wrap;connectable=0;overflow=hidden;fillColor=none;top=0;left=0;bottom=0;right=0;pointerEvents=1;fontSize=15;fontColor=#FFFFFF;" vertex="1" parent="UZmu4c3q16m0rg6N8I7Y-233">
          <mxGeometry x="160" width="140" height="40" as="geometry">
            <mxRectangle width="140" height="40" as="alternateBounds" />
          </mxGeometry>
        </mxCell>
        <mxCell id="UZmu4c3q16m0rg6N8I7Y-237" value="" style="shape=partialRectangle;html=1;whiteSpace=wrap;connectable=0;overflow=hidden;fillColor=none;top=0;left=0;bottom=0;right=0;pointerEvents=1;fontSize=15;fontColor=#FFFFFF;" vertex="1" parent="UZmu4c3q16m0rg6N8I7Y-233">
          <mxGeometry x="300" width="60" height="40" as="geometry">
            <mxRectangle width="60" height="40" as="alternateBounds" />
          </mxGeometry>
        </mxCell>
        <mxCell id="UZmu4c3q16m0rg6N8I7Y-238" value="" style="shape=partialRectangle;html=1;whiteSpace=wrap;connectable=0;overflow=hidden;fillColor=none;top=0;left=0;bottom=0;right=0;pointerEvents=1;fontSize=15;fontColor=#FFFFFF;" vertex="1" parent="UZmu4c3q16m0rg6N8I7Y-233">
          <mxGeometry x="360" width="110" height="40" as="geometry">
            <mxRectangle width="110" height="40" as="alternateBounds" />
          </mxGeometry>
        </mxCell>
        <mxCell id="UZmu4c3q16m0rg6N8I7Y-239" value="" style="shape=tableRow;horizontal=0;startSize=0;swimlaneHead=0;swimlaneBody=0;top=0;left=0;bottom=0;right=0;collapsible=0;dropTarget=0;fillColor=none;points=[[0,0.5],[1,0.5]];portConstraint=eastwest;fontSize=15;fontColor=#FFFFFF;" vertex="1" parent="UZmu4c3q16m0rg6N8I7Y-226">
          <mxGeometry y="80" width="470" height="40" as="geometry" />
        </mxCell>
        <mxCell id="UZmu4c3q16m0rg6N8I7Y-240" value="2" style="shape=partialRectangle;html=1;whiteSpace=wrap;connectable=0;overflow=hidden;fillColor=none;top=0;left=0;bottom=0;right=0;pointerEvents=1;fontSize=15;fontColor=#FFFFFF;" vertex="1" parent="UZmu4c3q16m0rg6N8I7Y-239">
          <mxGeometry width="60" height="40" as="geometry">
            <mxRectangle width="60" height="40" as="alternateBounds" />
          </mxGeometry>
        </mxCell>
        <mxCell id="UZmu4c3q16m0rg6N8I7Y-241" value="苹果" style="shape=partialRectangle;html=1;whiteSpace=wrap;connectable=0;overflow=hidden;fillColor=none;top=0;left=0;bottom=0;right=0;pointerEvents=1;fontSize=15;fontColor=#FFFFFF;" vertex="1" parent="UZmu4c3q16m0rg6N8I7Y-239">
          <mxGeometry x="60" width="100" height="40" as="geometry">
            <mxRectangle width="100" height="40" as="alternateBounds" />
          </mxGeometry>
        </mxCell>
        <mxCell id="UZmu4c3q16m0rg6N8I7Y-242" value="124" style="shape=partialRectangle;html=1;whiteSpace=wrap;connectable=0;overflow=hidden;fillColor=none;top=0;left=0;bottom=0;right=0;pointerEvents=1;fontSize=15;fontColor=#FFFFFF;" vertex="1" parent="UZmu4c3q16m0rg6N8I7Y-239">
          <mxGeometry x="160" width="140" height="40" as="geometry">
            <mxRectangle width="140" height="40" as="alternateBounds" />
          </mxGeometry>
        </mxCell>
        <mxCell id="UZmu4c3q16m0rg6N8I7Y-243" value="" style="shape=partialRectangle;html=1;whiteSpace=wrap;connectable=0;overflow=hidden;fillColor=none;top=0;left=0;bottom=0;right=0;pointerEvents=1;fontSize=15;fontColor=#FFFFFF;" vertex="1" parent="UZmu4c3q16m0rg6N8I7Y-239">
          <mxGeometry x="300" width="60" height="40" as="geometry">
            <mxRectangle width="60" height="40" as="alternateBounds" />
          </mxGeometry>
        </mxCell>
        <mxCell id="UZmu4c3q16m0rg6N8I7Y-244" value="" style="shape=partialRectangle;html=1;whiteSpace=wrap;connectable=0;overflow=hidden;fillColor=none;top=0;left=0;bottom=0;right=0;pointerEvents=1;fontSize=15;fontColor=#FFFFFF;" vertex="1" parent="UZmu4c3q16m0rg6N8I7Y-239">
          <mxGeometry x="360" width="110" height="40" as="geometry">
            <mxRectangle width="110" height="40" as="alternateBounds" />
          </mxGeometry>
        </mxCell>
        <mxCell id="UZmu4c3q16m0rg6N8I7Y-245" value="" style="shape=tableRow;horizontal=0;startSize=0;swimlaneHead=0;swimlaneBody=0;top=0;left=0;bottom=0;right=0;collapsible=0;dropTarget=0;fillColor=none;points=[[0,0.5],[1,0.5]];portConstraint=eastwest;fontSize=15;fontColor=#FFFFFF;" vertex="1" parent="UZmu4c3q16m0rg6N8I7Y-226">
          <mxGeometry y="120" width="470" height="40" as="geometry" />
        </mxCell>
        <mxCell id="UZmu4c3q16m0rg6N8I7Y-246" value="3" style="shape=partialRectangle;html=1;whiteSpace=wrap;connectable=0;overflow=hidden;fillColor=none;top=0;left=0;bottom=0;right=0;pointerEvents=1;fontSize=15;fontColor=#FFFFFF;" vertex="1" parent="UZmu4c3q16m0rg6N8I7Y-245">
          <mxGeometry width="60" height="40" as="geometry">
            <mxRectangle width="60" height="40" as="alternateBounds" />
          </mxGeometry>
        </mxCell>
        <mxCell id="UZmu4c3q16m0rg6N8I7Y-247" value="" style="shape=partialRectangle;html=1;whiteSpace=wrap;connectable=0;overflow=hidden;fillColor=none;top=0;left=0;bottom=0;right=0;pointerEvents=1;fontSize=15;fontColor=#FFFFFF;" vertex="1" parent="UZmu4c3q16m0rg6N8I7Y-245">
          <mxGeometry x="60" width="100" height="40" as="geometry">
            <mxRectangle width="100" height="40" as="alternateBounds" />
          </mxGeometry>
        </mxCell>
        <mxCell id="UZmu4c3q16m0rg6N8I7Y-248" value="" style="shape=partialRectangle;html=1;whiteSpace=wrap;connectable=0;overflow=hidden;fillColor=none;top=0;left=0;bottom=0;right=0;pointerEvents=1;fontSize=15;fontColor=#FFFFFF;" vertex="1" parent="UZmu4c3q16m0rg6N8I7Y-245">
          <mxGeometry x="160" width="140" height="40" as="geometry">
            <mxRectangle width="140" height="40" as="alternateBounds" />
          </mxGeometry>
        </mxCell>
        <mxCell id="UZmu4c3q16m0rg6N8I7Y-249" value="" style="shape=partialRectangle;html=1;whiteSpace=wrap;connectable=0;overflow=hidden;fillColor=none;top=0;left=0;bottom=0;right=0;pointerEvents=1;fontSize=15;fontColor=#FFFFFF;" vertex="1" parent="UZmu4c3q16m0rg6N8I7Y-245">
          <mxGeometry x="300" width="60" height="40" as="geometry">
            <mxRectangle width="60" height="40" as="alternateBounds" />
          </mxGeometry>
        </mxCell>
        <mxCell id="UZmu4c3q16m0rg6N8I7Y-250" value="" style="shape=partialRectangle;html=1;whiteSpace=wrap;connectable=0;overflow=hidden;fillColor=none;top=0;left=0;bottom=0;right=0;pointerEvents=1;fontSize=15;fontColor=#FFFFFF;" vertex="1" parent="UZmu4c3q16m0rg6N8I7Y-245">
          <mxGeometry x="360" width="110" height="40" as="geometry">
            <mxRectangle width="110" height="40" as="alternateBounds" />
          </mxGeometry>
        </mxCell>
        <mxCell id="UZmu4c3q16m0rg6N8I7Y-276" value="" style="shape=table;startSize=0;container=1;collapsible=0;childLayout=tableLayout;fontSize=15;fontColor=#FFFFFF;fillColor=#FF9933;" vertex="1" parent="1">
          <mxGeometry x="620" y="1570" width="510" height="160" as="geometry" />
        </mxCell>
        <mxCell id="UZmu4c3q16m0rg6N8I7Y-277" value="" style="shape=tableRow;horizontal=0;startSize=0;swimlaneHead=0;swimlaneBody=0;top=0;left=0;bottom=0;right=0;collapsible=0;dropTarget=0;fillColor=none;points=[[0,0.5],[1,0.5]];portConstraint=eastwest;fontSize=15;fontColor=#FFFFFF;" vertex="1" parent="UZmu4c3q16m0rg6N8I7Y-276">
          <mxGeometry width="510" height="40" as="geometry" />
        </mxCell>
        <mxCell id="UZmu4c3q16m0rg6N8I7Y-278" value="id" style="shape=partialRectangle;html=1;whiteSpace=wrap;connectable=0;overflow=hidden;fillColor=none;top=0;left=0;bottom=0;right=0;pointerEvents=1;fontSize=15;fontColor=#FFFFFF;" vertex="1" parent="UZmu4c3q16m0rg6N8I7Y-277">
          <mxGeometry width="60" height="40" as="geometry">
            <mxRectangle width="60" height="40" as="alternateBounds" />
          </mxGeometry>
        </mxCell>
        <mxCell id="UZmu4c3q16m0rg6N8I7Y-279" value="vi" style="shape=partialRectangle;html=1;whiteSpace=wrap;connectable=0;overflow=hidden;fillColor=none;top=0;left=0;bottom=0;right=0;pointerEvents=1;fontSize=15;fontColor=#FFFFFF;" vertex="1" parent="UZmu4c3q16m0rg6N8I7Y-277">
          <mxGeometry x="60" width="60" height="40" as="geometry">
            <mxRectangle width="60" height="40" as="alternateBounds" />
          </mxGeometry>
        </mxCell>
        <mxCell id="UZmu4c3q16m0rg6N8I7Y-280" value="zh_cn" style="shape=partialRectangle;html=1;whiteSpace=wrap;connectable=0;overflow=hidden;fillColor=none;top=0;left=0;bottom=0;right=0;pointerEvents=1;fontSize=15;fontColor=#FFFFFF;" vertex="1" parent="UZmu4c3q16m0rg6N8I7Y-277">
          <mxGeometry x="120" width="60" height="40" as="geometry">
            <mxRectangle width="60" height="40" as="alternateBounds" />
          </mxGeometry>
        </mxCell>
        <mxCell id="UZmu4c3q16m0rg6N8I7Y-281" value="zh_tw" style="shape=partialRectangle;html=1;whiteSpace=wrap;connectable=0;overflow=hidden;fillColor=none;top=0;left=0;bottom=0;right=0;pointerEvents=1;fontSize=15;fontColor=#FFFFFF;" vertex="1" parent="UZmu4c3q16m0rg6N8I7Y-277">
          <mxGeometry x="180" width="60" height="40" as="geometry">
            <mxRectangle width="60" height="40" as="alternateBounds" />
          </mxGeometry>
        </mxCell>
        <mxCell id="UZmu4c3q16m0rg6N8I7Y-282" value="en" style="shape=partialRectangle;html=1;whiteSpace=wrap;connectable=0;overflow=hidden;fillColor=none;top=0;left=0;bottom=0;right=0;pointerEvents=1;fontSize=15;fontColor=#FFFFFF;" vertex="1" parent="UZmu4c3q16m0rg6N8I7Y-277">
          <mxGeometry x="240" width="70" height="40" as="geometry">
            <mxRectangle width="70" height="40" as="alternateBounds" />
          </mxGeometry>
        </mxCell>
        <mxCell id="UZmu4c3q16m0rg6N8I7Y-283" value="ja" style="shape=partialRectangle;html=1;whiteSpace=wrap;connectable=0;overflow=hidden;fillColor=none;top=0;left=0;bottom=0;right=0;pointerEvents=1;fontSize=15;fontColor=#FFFFFF;" vertex="1" parent="UZmu4c3q16m0rg6N8I7Y-277">
          <mxGeometry x="310" width="50" height="40" as="geometry">
            <mxRectangle width="50" height="40" as="alternateBounds" />
          </mxGeometry>
        </mxCell>
        <mxCell id="UZmu4c3q16m0rg6N8I7Y-284" value="ko" style="shape=partialRectangle;html=1;whiteSpace=wrap;connectable=0;overflow=hidden;fillColor=none;top=0;left=0;bottom=0;right=0;pointerEvents=1;fontSize=15;fontColor=#FFFFFF;" vertex="1" parent="UZmu4c3q16m0rg6N8I7Y-277">
          <mxGeometry x="360" width="60" height="40" as="geometry">
            <mxRectangle width="60" height="40" as="alternateBounds" />
          </mxGeometry>
        </mxCell>
        <mxCell id="UZmu4c3q16m0rg6N8I7Y-285" value="es" style="shape=partialRectangle;html=1;whiteSpace=wrap;connectable=0;overflow=hidden;fillColor=none;top=0;left=0;bottom=0;right=0;pointerEvents=1;fontSize=15;fontColor=#FFFFFF;" vertex="1" parent="UZmu4c3q16m0rg6N8I7Y-277">
          <mxGeometry x="420" width="90" height="40" as="geometry">
            <mxRectangle width="90" height="40" as="alternateBounds" />
          </mxGeometry>
        </mxCell>
        <mxCell id="UZmu4c3q16m0rg6N8I7Y-286" value="" style="shape=tableRow;horizontal=0;startSize=0;swimlaneHead=0;swimlaneBody=0;top=0;left=0;bottom=0;right=0;collapsible=0;dropTarget=0;fillColor=none;points=[[0,0.5],[1,0.5]];portConstraint=eastwest;fontSize=15;fontColor=#FFFFFF;" vertex="1" parent="UZmu4c3q16m0rg6N8I7Y-276">
          <mxGeometry y="40" width="510" height="40" as="geometry" />
        </mxCell>
        <mxCell id="UZmu4c3q16m0rg6N8I7Y-287" value="123" style="shape=partialRectangle;html=1;whiteSpace=wrap;connectable=0;overflow=hidden;fillColor=none;top=0;left=0;bottom=0;right=0;pointerEvents=1;fontSize=15;fontColor=#FFFFFF;" vertex="1" parent="UZmu4c3q16m0rg6N8I7Y-286">
          <mxGeometry width="60" height="40" as="geometry">
            <mxRectangle width="60" height="40" as="alternateBounds" />
          </mxGeometry>
        </mxCell>
        <mxCell id="UZmu4c3q16m0rg6N8I7Y-288" value="sô cô la" style="shape=partialRectangle;html=1;whiteSpace=wrap;connectable=0;overflow=hidden;fillColor=none;top=0;left=0;bottom=0;right=0;pointerEvents=1;fontSize=15;fontColor=#FFFFFF;" vertex="1" parent="UZmu4c3q16m0rg6N8I7Y-286">
          <mxGeometry x="60" width="60" height="40" as="geometry">
            <mxRectangle width="60" height="40" as="alternateBounds" />
          </mxGeometry>
        </mxCell>
        <mxCell id="UZmu4c3q16m0rg6N8I7Y-289" value="巧克力" style="shape=partialRectangle;html=1;whiteSpace=wrap;connectable=0;overflow=hidden;fillColor=none;top=0;left=0;bottom=0;right=0;pointerEvents=1;fontSize=15;fontColor=#FFFFFF;" vertex="1" parent="UZmu4c3q16m0rg6N8I7Y-286">
          <mxGeometry x="120" width="60" height="40" as="geometry">
            <mxRectangle width="60" height="40" as="alternateBounds" />
          </mxGeometry>
        </mxCell>
        <mxCell id="UZmu4c3q16m0rg6N8I7Y-290" value="巧克力" style="shape=partialRectangle;html=1;whiteSpace=wrap;connectable=0;overflow=hidden;fillColor=none;top=0;left=0;bottom=0;right=0;pointerEvents=1;fontSize=15;fontColor=#FFFFFF;" vertex="1" parent="UZmu4c3q16m0rg6N8I7Y-286">
          <mxGeometry x="180" width="60" height="40" as="geometry">
            <mxRectangle width="60" height="40" as="alternateBounds" />
          </mxGeometry>
        </mxCell>
        <mxCell id="UZmu4c3q16m0rg6N8I7Y-291" value="chocolate" style="shape=partialRectangle;html=1;whiteSpace=wrap;connectable=0;overflow=hidden;fillColor=none;top=0;left=0;bottom=0;right=0;pointerEvents=1;fontSize=15;fontColor=#FFFFFF;" vertex="1" parent="UZmu4c3q16m0rg6N8I7Y-286">
          <mxGeometry x="240" width="70" height="40" as="geometry">
            <mxRectangle width="70" height="40" as="alternateBounds" />
          </mxGeometry>
        </mxCell>
        <mxCell id="UZmu4c3q16m0rg6N8I7Y-292" value="チョコレート" style="shape=partialRectangle;html=1;whiteSpace=wrap;connectable=0;overflow=hidden;fillColor=none;top=0;left=0;bottom=0;right=0;pointerEvents=1;fontSize=15;fontColor=#FFFFFF;" vertex="1" parent="UZmu4c3q16m0rg6N8I7Y-286">
          <mxGeometry x="310" width="50" height="40" as="geometry">
            <mxRectangle width="50" height="40" as="alternateBounds" />
          </mxGeometry>
        </mxCell>
        <mxCell id="UZmu4c3q16m0rg6N8I7Y-293" value="&lt;span style=&quot;font-family: &amp;#34;arial&amp;#34; , sans-serif ; font-size: 12px ; text-align: left&quot;&gt;초콜릿&lt;/span&gt;" style="shape=partialRectangle;html=1;whiteSpace=wrap;connectable=0;overflow=hidden;fillColor=none;top=0;left=0;bottom=0;right=0;pointerEvents=1;fontSize=15;fontColor=#FFFFFF;" vertex="1" parent="UZmu4c3q16m0rg6N8I7Y-286">
          <mxGeometry x="360" width="60" height="40" as="geometry">
            <mxRectangle width="60" height="40" as="alternateBounds" />
          </mxGeometry>
        </mxCell>
        <mxCell id="UZmu4c3q16m0rg6N8I7Y-294" value="&lt;span&gt;chocolate&lt;/span&gt;" style="shape=partialRectangle;html=1;whiteSpace=wrap;connectable=0;overflow=hidden;fillColor=none;top=0;left=0;bottom=0;right=0;pointerEvents=1;fontSize=15;fontColor=#FFFFFF;" vertex="1" parent="UZmu4c3q16m0rg6N8I7Y-286">
          <mxGeometry x="420" width="90" height="40" as="geometry">
            <mxRectangle width="90" height="40" as="alternateBounds" />
          </mxGeometry>
        </mxCell>
        <mxCell id="UZmu4c3q16m0rg6N8I7Y-295" value="" style="shape=tableRow;horizontal=0;startSize=0;swimlaneHead=0;swimlaneBody=0;top=0;left=0;bottom=0;right=0;collapsible=0;dropTarget=0;fillColor=none;points=[[0,0.5],[1,0.5]];portConstraint=eastwest;fontSize=15;fontColor=#FFFFFF;" vertex="1" parent="UZmu4c3q16m0rg6N8I7Y-276">
          <mxGeometry y="80" width="510" height="40" as="geometry" />
        </mxCell>
        <mxCell id="UZmu4c3q16m0rg6N8I7Y-296" value="124" style="shape=partialRectangle;html=1;whiteSpace=wrap;connectable=0;overflow=hidden;fillColor=none;top=0;left=0;bottom=0;right=0;pointerEvents=1;fontSize=15;fontColor=#FFFFFF;" vertex="1" parent="UZmu4c3q16m0rg6N8I7Y-295">
          <mxGeometry width="60" height="40" as="geometry">
            <mxRectangle width="60" height="40" as="alternateBounds" />
          </mxGeometry>
        </mxCell>
        <mxCell id="UZmu4c3q16m0rg6N8I7Y-297" value="quả táo" style="shape=partialRectangle;html=1;whiteSpace=wrap;connectable=0;overflow=hidden;fillColor=none;top=0;left=0;bottom=0;right=0;pointerEvents=1;fontSize=15;fontColor=#FFFFFF;" vertex="1" parent="UZmu4c3q16m0rg6N8I7Y-295">
          <mxGeometry x="60" width="60" height="40" as="geometry">
            <mxRectangle width="60" height="40" as="alternateBounds" />
          </mxGeometry>
        </mxCell>
        <mxCell id="UZmu4c3q16m0rg6N8I7Y-298" value="苹果" style="shape=partialRectangle;html=1;whiteSpace=wrap;connectable=0;overflow=hidden;fillColor=none;top=0;left=0;bottom=0;right=0;pointerEvents=1;fontSize=15;fontColor=#FFFFFF;" vertex="1" parent="UZmu4c3q16m0rg6N8I7Y-295">
          <mxGeometry x="120" width="60" height="40" as="geometry">
            <mxRectangle width="60" height="40" as="alternateBounds" />
          </mxGeometry>
        </mxCell>
        <mxCell id="UZmu4c3q16m0rg6N8I7Y-299" value="蘋果" style="shape=partialRectangle;html=1;whiteSpace=wrap;connectable=0;overflow=hidden;fillColor=none;top=0;left=0;bottom=0;right=0;pointerEvents=1;fontSize=15;fontColor=#FFFFFF;" vertex="1" parent="UZmu4c3q16m0rg6N8I7Y-295">
          <mxGeometry x="180" width="60" height="40" as="geometry">
            <mxRectangle width="60" height="40" as="alternateBounds" />
          </mxGeometry>
        </mxCell>
        <mxCell id="UZmu4c3q16m0rg6N8I7Y-300" value="apple" style="shape=partialRectangle;html=1;whiteSpace=wrap;connectable=0;overflow=hidden;fillColor=none;top=0;left=0;bottom=0;right=0;pointerEvents=1;fontSize=15;fontColor=#FFFFFF;" vertex="1" parent="UZmu4c3q16m0rg6N8I7Y-295">
          <mxGeometry x="240" width="70" height="40" as="geometry">
            <mxRectangle width="70" height="40" as="alternateBounds" />
          </mxGeometry>
        </mxCell>
        <mxCell id="UZmu4c3q16m0rg6N8I7Y-301" value="りんご" style="shape=partialRectangle;html=1;whiteSpace=wrap;connectable=0;overflow=hidden;fillColor=none;top=0;left=0;bottom=0;right=0;pointerEvents=1;fontSize=15;fontColor=#FFFFFF;" vertex="1" parent="UZmu4c3q16m0rg6N8I7Y-295">
          <mxGeometry x="310" width="50" height="40" as="geometry">
            <mxRectangle width="50" height="40" as="alternateBounds" />
          </mxGeometry>
        </mxCell>
        <mxCell id="UZmu4c3q16m0rg6N8I7Y-302" value="사과" style="shape=partialRectangle;html=1;whiteSpace=wrap;connectable=0;overflow=hidden;fillColor=none;top=0;left=0;bottom=0;right=0;pointerEvents=1;fontSize=15;fontColor=#FFFFFF;" vertex="1" parent="UZmu4c3q16m0rg6N8I7Y-295">
          <mxGeometry x="360" width="60" height="40" as="geometry">
            <mxRectangle width="60" height="40" as="alternateBounds" />
          </mxGeometry>
        </mxCell>
        <mxCell id="UZmu4c3q16m0rg6N8I7Y-303" value="manzana" style="shape=partialRectangle;html=1;whiteSpace=wrap;connectable=0;overflow=hidden;fillColor=none;top=0;left=0;bottom=0;right=0;pointerEvents=1;fontSize=15;fontColor=#FFFFFF;" vertex="1" parent="UZmu4c3q16m0rg6N8I7Y-295">
          <mxGeometry x="420" width="90" height="40" as="geometry">
            <mxRectangle width="90" height="40" as="alternateBounds" />
          </mxGeometry>
        </mxCell>
        <mxCell id="UZmu4c3q16m0rg6N8I7Y-304" value="" style="shape=tableRow;horizontal=0;startSize=0;swimlaneHead=0;swimlaneBody=0;top=0;left=0;bottom=0;right=0;collapsible=0;dropTarget=0;fillColor=none;points=[[0,0.5],[1,0.5]];portConstraint=eastwest;fontSize=15;fontColor=#FFFFFF;" vertex="1" parent="UZmu4c3q16m0rg6N8I7Y-276">
          <mxGeometry y="120" width="510" height="40" as="geometry" />
        </mxCell>
        <mxCell id="UZmu4c3q16m0rg6N8I7Y-305" value="125" style="shape=partialRectangle;html=1;whiteSpace=wrap;connectable=0;overflow=hidden;fillColor=none;top=0;left=0;bottom=0;right=0;pointerEvents=1;fontSize=15;fontColor=#FFFFFF;" vertex="1" parent="UZmu4c3q16m0rg6N8I7Y-304">
          <mxGeometry width="60" height="40" as="geometry">
            <mxRectangle width="60" height="40" as="alternateBounds" />
          </mxGeometry>
        </mxCell>
        <mxCell id="UZmu4c3q16m0rg6N8I7Y-306" value="" style="shape=partialRectangle;html=1;whiteSpace=wrap;connectable=0;overflow=hidden;fillColor=none;top=0;left=0;bottom=0;right=0;pointerEvents=1;fontSize=15;fontColor=#FFFFFF;" vertex="1" parent="UZmu4c3q16m0rg6N8I7Y-304">
          <mxGeometry x="60" width="60" height="40" as="geometry">
            <mxRectangle width="60" height="40" as="alternateBounds" />
          </mxGeometry>
        </mxCell>
        <mxCell id="UZmu4c3q16m0rg6N8I7Y-307" value="" style="shape=partialRectangle;html=1;whiteSpace=wrap;connectable=0;overflow=hidden;fillColor=none;top=0;left=0;bottom=0;right=0;pointerEvents=1;fontSize=15;fontColor=#FFFFFF;" vertex="1" parent="UZmu4c3q16m0rg6N8I7Y-304">
          <mxGeometry x="120" width="60" height="40" as="geometry">
            <mxRectangle width="60" height="40" as="alternateBounds" />
          </mxGeometry>
        </mxCell>
        <mxCell id="UZmu4c3q16m0rg6N8I7Y-308" value="" style="shape=partialRectangle;html=1;whiteSpace=wrap;connectable=0;overflow=hidden;fillColor=none;top=0;left=0;bottom=0;right=0;pointerEvents=1;fontSize=15;fontColor=#FFFFFF;" vertex="1" parent="UZmu4c3q16m0rg6N8I7Y-304">
          <mxGeometry x="180" width="60" height="40" as="geometry">
            <mxRectangle width="60" height="40" as="alternateBounds" />
          </mxGeometry>
        </mxCell>
        <mxCell id="UZmu4c3q16m0rg6N8I7Y-309" value="" style="shape=partialRectangle;html=1;whiteSpace=wrap;connectable=0;overflow=hidden;fillColor=none;top=0;left=0;bottom=0;right=0;pointerEvents=1;fontSize=15;fontColor=#FFFFFF;" vertex="1" parent="UZmu4c3q16m0rg6N8I7Y-304">
          <mxGeometry x="240" width="70" height="40" as="geometry">
            <mxRectangle width="70" height="40" as="alternateBounds" />
          </mxGeometry>
        </mxCell>
        <mxCell id="UZmu4c3q16m0rg6N8I7Y-310" value="" style="shape=partialRectangle;html=1;whiteSpace=wrap;connectable=0;overflow=hidden;fillColor=none;top=0;left=0;bottom=0;right=0;pointerEvents=1;fontSize=15;fontColor=#FFFFFF;" vertex="1" parent="UZmu4c3q16m0rg6N8I7Y-304">
          <mxGeometry x="310" width="50" height="40" as="geometry">
            <mxRectangle width="50" height="40" as="alternateBounds" />
          </mxGeometry>
        </mxCell>
        <mxCell id="UZmu4c3q16m0rg6N8I7Y-311" value="" style="shape=partialRectangle;html=1;whiteSpace=wrap;connectable=0;overflow=hidden;fillColor=none;top=0;left=0;bottom=0;right=0;pointerEvents=1;fontSize=15;fontColor=#FFFFFF;" vertex="1" parent="UZmu4c3q16m0rg6N8I7Y-304">
          <mxGeometry x="360" width="60" height="40" as="geometry">
            <mxRectangle width="60" height="40" as="alternateBounds" />
          </mxGeometry>
        </mxCell>
        <mxCell id="UZmu4c3q16m0rg6N8I7Y-312" value="" style="shape=partialRectangle;html=1;whiteSpace=wrap;connectable=0;overflow=hidden;fillColor=none;top=0;left=0;bottom=0;right=0;pointerEvents=1;fontSize=15;fontColor=#FFFFFF;" vertex="1" parent="UZmu4c3q16m0rg6N8I7Y-304">
          <mxGeometry x="420" width="90" height="40" as="geometry">
            <mxRectangle width="90" height="40" as="alternateBounds" />
          </mxGeometry>
        </mxCell>
        <mxCell id="UZmu4c3q16m0rg6N8I7Y-367" style="edgeStyle=orthogonalEdgeStyle;rounded=0;orthogonalLoop=1;jettySize=auto;html=1;exitX=1;exitY=0.5;exitDx=0;exitDy=0;entryX=1;entryY=0.75;entryDx=0;entryDy=0;fontSize=15;fontColor=#000000;" edge="1" parent="1" source="UZmu4c3q16m0rg6N8I7Y-313" target="UZmu4c3q16m0rg6N8I7Y-315">
          <mxGeometry relative="1" as="geometry">
            <Array as="points">
              <mxPoint x="580" y="2241" />
              <mxPoint x="580" y="2096" />
            </Array>
          </mxGeometry>
        </mxCell>
        <mxCell id="UZmu4c3q16m0rg6N8I7Y-416" style="edgeStyle=orthogonalEdgeStyle;rounded=0;orthogonalLoop=1;jettySize=auto;html=1;exitX=0.5;exitY=1;exitDx=0;exitDy=0;entryX=0.502;entryY=0;entryDx=0;entryDy=0;entryPerimeter=0;fontSize=15;fontColor=#000000;" edge="1" parent="1" source="UZmu4c3q16m0rg6N8I7Y-313" target="UZmu4c3q16m0rg6N8I7Y-327">
          <mxGeometry relative="1" as="geometry" />
        </mxCell>
        <mxCell id="UZmu4c3q16m0rg6N8I7Y-313" value="Goods Service" style="rounded=1;whiteSpace=wrap;html=1;fontSize=15;fontColor=#FFFFFF;fillColor=#B266FF;" vertex="1" parent="1">
          <mxGeometry x="385" y="2216" width="120" height="50" as="geometry" />
        </mxCell>
        <mxCell id="UZmu4c3q16m0rg6N8I7Y-314" value="用户" style="ellipse;whiteSpace=wrap;html=1;fontSize=15;fontColor=#FFFFFF;fillColor=#97D077;" vertex="1" parent="1">
          <mxGeometry x="370" y="1820" width="180" height="100" as="geometry" />
        </mxCell>
        <mxCell id="UZmu4c3q16m0rg6N8I7Y-354" style="edgeStyle=orthogonalEdgeStyle;rounded=0;orthogonalLoop=1;jettySize=auto;html=1;exitX=1;exitY=0.25;exitDx=0;exitDy=0;entryX=0;entryY=0.75;entryDx=0;entryDy=0;fontSize=15;fontColor=#000000;" edge="1" parent="1" source="UZmu4c3q16m0rg6N8I7Y-315" target="UZmu4c3q16m0rg6N8I7Y-316">
          <mxGeometry relative="1" as="geometry">
            <Array as="points">
              <mxPoint x="520" y="2066" />
            </Array>
          </mxGeometry>
        </mxCell>
        <mxCell id="UZmu4c3q16m0rg6N8I7Y-366" style="edgeStyle=orthogonalEdgeStyle;rounded=0;orthogonalLoop=1;jettySize=auto;html=1;exitX=0;exitY=0.75;exitDx=0;exitDy=0;entryX=0;entryY=0.5;entryDx=0;entryDy=0;fontSize=15;fontColor=#000000;" edge="1" parent="1" source="UZmu4c3q16m0rg6N8I7Y-315" target="UZmu4c3q16m0rg6N8I7Y-313">
          <mxGeometry relative="1" as="geometry">
            <Array as="points">
              <mxPoint x="320" y="2096" />
              <mxPoint x="320" y="2241" />
            </Array>
          </mxGeometry>
        </mxCell>
        <mxCell id="UZmu4c3q16m0rg6N8I7Y-375" style="edgeStyle=orthogonalEdgeStyle;rounded=0;orthogonalLoop=1;jettySize=auto;html=1;exitX=0.75;exitY=0;exitDx=0;exitDy=0;entryX=0.656;entryY=0.96;entryDx=0;entryDy=0;entryPerimeter=0;fontSize=15;fontColor=#000000;" edge="1" parent="1" source="UZmu4c3q16m0rg6N8I7Y-315" target="UZmu4c3q16m0rg6N8I7Y-314">
          <mxGeometry relative="1" as="geometry" />
        </mxCell>
        <mxCell id="UZmu4c3q16m0rg6N8I7Y-315" value="API Gateway" style="rounded=1;whiteSpace=wrap;html=1;absoluteArcSize=1;arcSize=14;strokeWidth=2;fontSize=15;fontColor=#FFFFFF;fillColor=#6666FF;" vertex="1" parent="1">
          <mxGeometry x="390" y="2006" width="130" height="120" as="geometry" />
        </mxCell>
        <mxCell id="UZmu4c3q16m0rg6N8I7Y-368" style="edgeStyle=orthogonalEdgeStyle;rounded=0;orthogonalLoop=1;jettySize=auto;html=1;exitX=0;exitY=0.25;exitDx=0;exitDy=0;entryX=1;entryY=0.25;entryDx=0;entryDy=0;fontSize=15;fontColor=#000000;" edge="1" parent="1" source="UZmu4c3q16m0rg6N8I7Y-316" target="UZmu4c3q16m0rg6N8I7Y-315">
          <mxGeometry relative="1" as="geometry" />
        </mxCell>
        <mxCell id="UZmu4c3q16m0rg6N8I7Y-415" style="edgeStyle=orthogonalEdgeStyle;rounded=0;orthogonalLoop=1;jettySize=auto;html=1;exitX=1;exitY=0.5;exitDx=0;exitDy=0;entryX=0.459;entryY=0.025;entryDx=0;entryDy=0;entryPerimeter=0;fontSize=15;fontColor=#000000;" edge="1" parent="1" source="UZmu4c3q16m0rg6N8I7Y-316" target="UZmu4c3q16m0rg6N8I7Y-379">
          <mxGeometry relative="1" as="geometry" />
        </mxCell>
        <mxCell id="UZmu4c3q16m0rg6N8I7Y-316" value="I18N Service" style="rounded=1;whiteSpace=wrap;html=1;fontSize=15;fontColor=#FFFFFF;fillColor=#B266FF;" vertex="1" parent="1">
          <mxGeometry x="857.5" y="2021" width="120" height="60" as="geometry" />
        </mxCell>
        <mxCell id="UZmu4c3q16m0rg6N8I7Y-322" value="&lt;font color=&quot;#000000&quot;&gt;①&lt;/font&gt;" style="text;html=1;strokeColor=none;fillColor=none;align=center;verticalAlign=middle;whiteSpace=wrap;rounded=0;fontSize=15;fontColor=#FFFFFF;" vertex="1" parent="1">
          <mxGeometry x="385" y="1946" width="50" height="30" as="geometry" />
        </mxCell>
        <mxCell id="UZmu4c3q16m0rg6N8I7Y-323" value="②" style="text;html=1;strokeColor=none;fillColor=none;align=center;verticalAlign=middle;whiteSpace=wrap;rounded=0;fontSize=15;fontColor=#000000;" vertex="1" parent="1">
          <mxGeometry x="270" y="2146" width="60" height="30" as="geometry" />
        </mxCell>
        <mxCell id="UZmu4c3q16m0rg6N8I7Y-325" value="③" style="text;html=1;strokeColor=none;fillColor=none;align=center;verticalAlign=middle;whiteSpace=wrap;rounded=0;fontSize=15;fontColor=#000000;" vertex="1" parent="1">
          <mxGeometry x="540" y="2136" width="60" height="30" as="geometry" />
        </mxCell>
        <mxCell id="UZmu4c3q16m0rg6N8I7Y-326" value="" style="shape=table;startSize=0;container=1;collapsible=0;childLayout=tableLayout;fontSize=15;fontColor=#FFFFFF;fillColor=#FF9933;" vertex="1" parent="1">
          <mxGeometry x="210" y="2316" width="470" height="160" as="geometry" />
        </mxCell>
        <mxCell id="UZmu4c3q16m0rg6N8I7Y-327" value="" style="shape=tableRow;horizontal=0;startSize=0;swimlaneHead=0;swimlaneBody=0;top=0;left=0;bottom=0;right=0;collapsible=0;dropTarget=0;fillColor=none;points=[[0,0.5],[1,0.5]];portConstraint=eastwest;fontSize=15;fontColor=#FFFFFF;" vertex="1" parent="UZmu4c3q16m0rg6N8I7Y-326">
          <mxGeometry width="470" height="40" as="geometry" />
        </mxCell>
        <mxCell id="UZmu4c3q16m0rg6N8I7Y-328" value="id" style="shape=partialRectangle;html=1;whiteSpace=wrap;connectable=0;overflow=hidden;fillColor=none;top=0;left=0;bottom=0;right=0;pointerEvents=1;fontSize=15;fontColor=#FFFFFF;" vertex="1" parent="UZmu4c3q16m0rg6N8I7Y-327">
          <mxGeometry width="60" height="40" as="geometry">
            <mxRectangle width="60" height="40" as="alternateBounds" />
          </mxGeometry>
        </mxCell>
        <mxCell id="UZmu4c3q16m0rg6N8I7Y-329" value="goods_name" style="shape=partialRectangle;html=1;whiteSpace=wrap;connectable=0;overflow=hidden;fillColor=none;top=0;left=0;bottom=0;right=0;pointerEvents=1;fontSize=15;fontColor=#FFFFFF;" vertex="1" parent="UZmu4c3q16m0rg6N8I7Y-327">
          <mxGeometry x="60" width="100" height="40" as="geometry">
            <mxRectangle width="100" height="40" as="alternateBounds" />
          </mxGeometry>
        </mxCell>
        <mxCell id="UZmu4c3q16m0rg6N8I7Y-330" value="goods_name_en" style="shape=partialRectangle;html=1;whiteSpace=wrap;connectable=0;overflow=hidden;fillColor=none;top=0;left=0;bottom=0;right=0;pointerEvents=1;fontSize=15;fontColor=#FFFFFF;" vertex="1" parent="UZmu4c3q16m0rg6N8I7Y-327">
          <mxGeometry x="160" width="150" height="40" as="geometry">
            <mxRectangle width="150" height="40" as="alternateBounds" />
          </mxGeometry>
        </mxCell>
        <mxCell id="UZmu4c3q16m0rg6N8I7Y-331" value="" style="shape=partialRectangle;html=1;whiteSpace=wrap;connectable=0;overflow=hidden;fillColor=none;top=0;left=0;bottom=0;right=0;pointerEvents=1;fontSize=15;fontColor=#FFFFFF;" vertex="1" parent="UZmu4c3q16m0rg6N8I7Y-327">
          <mxGeometry x="310" width="50" height="40" as="geometry">
            <mxRectangle width="50" height="40" as="alternateBounds" />
          </mxGeometry>
        </mxCell>
        <mxCell id="UZmu4c3q16m0rg6N8I7Y-332" value="" style="shape=partialRectangle;html=1;whiteSpace=wrap;connectable=0;overflow=hidden;fillColor=none;top=0;left=0;bottom=0;right=0;pointerEvents=1;fontSize=15;fontColor=#FFFFFF;" vertex="1" parent="UZmu4c3q16m0rg6N8I7Y-327">
          <mxGeometry x="360" width="110" height="40" as="geometry">
            <mxRectangle width="110" height="40" as="alternateBounds" />
          </mxGeometry>
        </mxCell>
        <mxCell id="UZmu4c3q16m0rg6N8I7Y-333" value="" style="shape=tableRow;horizontal=0;startSize=0;swimlaneHead=0;swimlaneBody=0;top=0;left=0;bottom=0;right=0;collapsible=0;dropTarget=0;fillColor=none;points=[[0,0.5],[1,0.5]];portConstraint=eastwest;fontSize=15;fontColor=#FFFFFF;" vertex="1" parent="UZmu4c3q16m0rg6N8I7Y-326">
          <mxGeometry y="40" width="470" height="40" as="geometry" />
        </mxCell>
        <mxCell id="UZmu4c3q16m0rg6N8I7Y-334" value="1" style="shape=partialRectangle;html=1;whiteSpace=wrap;connectable=0;overflow=hidden;fillColor=none;top=0;left=0;bottom=0;right=0;pointerEvents=1;fontSize=15;fontColor=#FFFFFF;" vertex="1" parent="UZmu4c3q16m0rg6N8I7Y-333">
          <mxGeometry width="60" height="40" as="geometry">
            <mxRectangle width="60" height="40" as="alternateBounds" />
          </mxGeometry>
        </mxCell>
        <mxCell id="UZmu4c3q16m0rg6N8I7Y-335" value="i18n#123#巧克力" style="shape=partialRectangle;html=1;whiteSpace=wrap;connectable=0;overflow=hidden;fillColor=none;top=0;left=0;bottom=0;right=0;pointerEvents=1;fontSize=15;fontColor=#FFFFFF;" vertex="1" parent="UZmu4c3q16m0rg6N8I7Y-333">
          <mxGeometry x="60" width="100" height="40" as="geometry">
            <mxRectangle width="100" height="40" as="alternateBounds" />
          </mxGeometry>
        </mxCell>
        <mxCell id="UZmu4c3q16m0rg6N8I7Y-336" value="&lt;span style=&quot;font-family: &amp;#34;arial&amp;#34; , sans-serif ; text-align: left ; font-size: 15px&quot;&gt;i18n#123#chocolate&lt;/span&gt;" style="shape=partialRectangle;html=1;whiteSpace=wrap;connectable=0;overflow=hidden;fillColor=none;top=0;left=0;bottom=0;right=0;pointerEvents=1;fontSize=15;fontColor=#FFFFFF;" vertex="1" parent="UZmu4c3q16m0rg6N8I7Y-333">
          <mxGeometry x="160" width="150" height="40" as="geometry">
            <mxRectangle width="150" height="40" as="alternateBounds" />
          </mxGeometry>
        </mxCell>
        <mxCell id="UZmu4c3q16m0rg6N8I7Y-337" value="" style="shape=partialRectangle;html=1;whiteSpace=wrap;connectable=0;overflow=hidden;fillColor=none;top=0;left=0;bottom=0;right=0;pointerEvents=1;fontSize=15;fontColor=#FFFFFF;" vertex="1" parent="UZmu4c3q16m0rg6N8I7Y-333">
          <mxGeometry x="310" width="50" height="40" as="geometry">
            <mxRectangle width="50" height="40" as="alternateBounds" />
          </mxGeometry>
        </mxCell>
        <mxCell id="UZmu4c3q16m0rg6N8I7Y-338" value="" style="shape=partialRectangle;html=1;whiteSpace=wrap;connectable=0;overflow=hidden;fillColor=none;top=0;left=0;bottom=0;right=0;pointerEvents=1;fontSize=15;fontColor=#FFFFFF;" vertex="1" parent="UZmu4c3q16m0rg6N8I7Y-333">
          <mxGeometry x="360" width="110" height="40" as="geometry">
            <mxRectangle width="110" height="40" as="alternateBounds" />
          </mxGeometry>
        </mxCell>
        <mxCell id="UZmu4c3q16m0rg6N8I7Y-339" value="" style="shape=tableRow;horizontal=0;startSize=0;swimlaneHead=0;swimlaneBody=0;top=0;left=0;bottom=0;right=0;collapsible=0;dropTarget=0;fillColor=none;points=[[0,0.5],[1,0.5]];portConstraint=eastwest;fontSize=15;fontColor=#FFFFFF;" vertex="1" parent="UZmu4c3q16m0rg6N8I7Y-326">
          <mxGeometry y="80" width="470" height="40" as="geometry" />
        </mxCell>
        <mxCell id="UZmu4c3q16m0rg6N8I7Y-340" value="2" style="shape=partialRectangle;html=1;whiteSpace=wrap;connectable=0;overflow=hidden;fillColor=none;top=0;left=0;bottom=0;right=0;pointerEvents=1;fontSize=15;fontColor=#FFFFFF;" vertex="1" parent="UZmu4c3q16m0rg6N8I7Y-339">
          <mxGeometry width="60" height="40" as="geometry">
            <mxRectangle width="60" height="40" as="alternateBounds" />
          </mxGeometry>
        </mxCell>
        <mxCell id="UZmu4c3q16m0rg6N8I7Y-341" value="i18n#124#香蕉" style="shape=partialRectangle;html=1;whiteSpace=wrap;connectable=0;overflow=hidden;fillColor=none;top=0;left=0;bottom=0;right=0;pointerEvents=1;fontSize=15;fontColor=#FFFFFF;" vertex="1" parent="UZmu4c3q16m0rg6N8I7Y-339">
          <mxGeometry x="60" width="100" height="40" as="geometry">
            <mxRectangle width="100" height="40" as="alternateBounds" />
          </mxGeometry>
        </mxCell>
        <mxCell id="UZmu4c3q16m0rg6N8I7Y-342" value="i18n#124#banana" style="shape=partialRectangle;html=1;whiteSpace=wrap;connectable=0;overflow=hidden;fillColor=none;top=0;left=0;bottom=0;right=0;pointerEvents=1;fontSize=15;fontColor=#FFFFFF;" vertex="1" parent="UZmu4c3q16m0rg6N8I7Y-339">
          <mxGeometry x="160" width="150" height="40" as="geometry">
            <mxRectangle width="150" height="40" as="alternateBounds" />
          </mxGeometry>
        </mxCell>
        <mxCell id="UZmu4c3q16m0rg6N8I7Y-343" value="" style="shape=partialRectangle;html=1;whiteSpace=wrap;connectable=0;overflow=hidden;fillColor=none;top=0;left=0;bottom=0;right=0;pointerEvents=1;fontSize=15;fontColor=#FFFFFF;" vertex="1" parent="UZmu4c3q16m0rg6N8I7Y-339">
          <mxGeometry x="310" width="50" height="40" as="geometry">
            <mxRectangle width="50" height="40" as="alternateBounds" />
          </mxGeometry>
        </mxCell>
        <mxCell id="UZmu4c3q16m0rg6N8I7Y-344" value="" style="shape=partialRectangle;html=1;whiteSpace=wrap;connectable=0;overflow=hidden;fillColor=none;top=0;left=0;bottom=0;right=0;pointerEvents=1;fontSize=15;fontColor=#FFFFFF;" vertex="1" parent="UZmu4c3q16m0rg6N8I7Y-339">
          <mxGeometry x="360" width="110" height="40" as="geometry">
            <mxRectangle width="110" height="40" as="alternateBounds" />
          </mxGeometry>
        </mxCell>
        <mxCell id="UZmu4c3q16m0rg6N8I7Y-345" value="" style="shape=tableRow;horizontal=0;startSize=0;swimlaneHead=0;swimlaneBody=0;top=0;left=0;bottom=0;right=0;collapsible=0;dropTarget=0;fillColor=none;points=[[0,0.5],[1,0.5]];portConstraint=eastwest;fontSize=15;fontColor=#FFFFFF;" vertex="1" parent="UZmu4c3q16m0rg6N8I7Y-326">
          <mxGeometry y="120" width="470" height="40" as="geometry" />
        </mxCell>
        <mxCell id="UZmu4c3q16m0rg6N8I7Y-346" value="3" style="shape=partialRectangle;html=1;whiteSpace=wrap;connectable=0;overflow=hidden;fillColor=none;top=0;left=0;bottom=0;right=0;pointerEvents=1;fontSize=15;fontColor=#FFFFFF;" vertex="1" parent="UZmu4c3q16m0rg6N8I7Y-345">
          <mxGeometry width="60" height="40" as="geometry">
            <mxRectangle width="60" height="40" as="alternateBounds" />
          </mxGeometry>
        </mxCell>
        <mxCell id="UZmu4c3q16m0rg6N8I7Y-347" value="" style="shape=partialRectangle;html=1;whiteSpace=wrap;connectable=0;overflow=hidden;fillColor=none;top=0;left=0;bottom=0;right=0;pointerEvents=1;fontSize=15;fontColor=#FFFFFF;" vertex="1" parent="UZmu4c3q16m0rg6N8I7Y-345">
          <mxGeometry x="60" width="100" height="40" as="geometry">
            <mxRectangle width="100" height="40" as="alternateBounds" />
          </mxGeometry>
        </mxCell>
        <mxCell id="UZmu4c3q16m0rg6N8I7Y-348" value="" style="shape=partialRectangle;html=1;whiteSpace=wrap;connectable=0;overflow=hidden;fillColor=none;top=0;left=0;bottom=0;right=0;pointerEvents=1;fontSize=15;fontColor=#FFFFFF;" vertex="1" parent="UZmu4c3q16m0rg6N8I7Y-345">
          <mxGeometry x="160" width="150" height="40" as="geometry">
            <mxRectangle width="150" height="40" as="alternateBounds" />
          </mxGeometry>
        </mxCell>
        <mxCell id="UZmu4c3q16m0rg6N8I7Y-349" value="" style="shape=partialRectangle;html=1;whiteSpace=wrap;connectable=0;overflow=hidden;fillColor=none;top=0;left=0;bottom=0;right=0;pointerEvents=1;fontSize=15;fontColor=#FFFFFF;" vertex="1" parent="UZmu4c3q16m0rg6N8I7Y-345">
          <mxGeometry x="310" width="50" height="40" as="geometry">
            <mxRectangle width="50" height="40" as="alternateBounds" />
          </mxGeometry>
        </mxCell>
        <mxCell id="UZmu4c3q16m0rg6N8I7Y-350" value="" style="shape=partialRectangle;html=1;whiteSpace=wrap;connectable=0;overflow=hidden;fillColor=none;top=0;left=0;bottom=0;right=0;pointerEvents=1;fontSize=15;fontColor=#FFFFFF;" vertex="1" parent="UZmu4c3q16m0rg6N8I7Y-345">
          <mxGeometry x="360" width="110" height="40" as="geometry">
            <mxRectangle width="110" height="40" as="alternateBounds" />
          </mxGeometry>
        </mxCell>
        <mxCell id="UZmu4c3q16m0rg6N8I7Y-351" value="{goods_name_en:&quot;i18n#123#chocolate&quot;}" style="text;html=1;strokeColor=none;fillColor=none;align=center;verticalAlign=middle;whiteSpace=wrap;rounded=0;fontSize=15;fontColor=#000000;" vertex="1" parent="1">
          <mxGeometry x="520" y="2156" width="310" height="40" as="geometry" />
        </mxCell>
        <mxCell id="UZmu4c3q16m0rg6N8I7Y-352" value="lang: ko" style="text;html=1;strokeColor=none;fillColor=none;align=center;verticalAlign=middle;whiteSpace=wrap;rounded=0;fontSize=15;fontColor=#000000;" vertex="1" parent="1">
          <mxGeometry x="320" y="1946" width="60" height="30" as="geometry" />
        </mxCell>
        <mxCell id="UZmu4c3q16m0rg6N8I7Y-353" value="提取goods_name_en字段" style="text;html=1;strokeColor=none;fillColor=none;align=center;verticalAlign=middle;whiteSpace=wrap;rounded=0;fontSize=15;fontColor=#000000;" vertex="1" parent="1">
          <mxGeometry x="160" y="2126" width="120" height="60" as="geometry" />
        </mxCell>
        <mxCell id="UZmu4c3q16m0rg6N8I7Y-355" value="④" style="text;html=1;strokeColor=none;fillColor=none;align=center;verticalAlign=middle;whiteSpace=wrap;rounded=0;fontSize=15;fontColor=#000000;" vertex="1" parent="1">
          <mxGeometry x="660" y="2066" width="60" height="30" as="geometry" />
        </mxCell>
        <mxCell id="UZmu4c3q16m0rg6N8I7Y-362" value="{goods_name_en:&quot;&lt;span style=&quot;font-family: &amp;#34;arial&amp;#34; , sans-serif ; font-size: 12px ; text-align: left&quot;&gt;초콜릿&lt;/span&gt;&quot;}" style="text;html=1;strokeColor=none;fillColor=none;align=center;verticalAlign=middle;whiteSpace=wrap;rounded=0;fontSize=15;fontColor=#000000;" vertex="1" parent="1">
          <mxGeometry x="547.5" y="1966" width="310" height="40" as="geometry" />
        </mxCell>
        <mxCell id="UZmu4c3q16m0rg6N8I7Y-365" value="⑤" style="text;html=1;strokeColor=none;fillColor=none;align=center;verticalAlign=middle;whiteSpace=wrap;rounded=0;fontSize=15;fontColor=#000000;" vertex="1" parent="1">
          <mxGeometry x="660" y="2006" width="60" height="30" as="geometry" />
        </mxCell>
        <mxCell id="UZmu4c3q16m0rg6N8I7Y-369" value="translate" style="text;html=1;strokeColor=none;fillColor=none;align=center;verticalAlign=middle;whiteSpace=wrap;rounded=0;fontSize=15;fontColor=#000000;" vertex="1" parent="1">
          <mxGeometry x="700" y="2066" width="80" height="30" as="geometry" />
        </mxCell>
        <mxCell id="UZmu4c3q16m0rg6N8I7Y-370" value="{goods_name_en:&quot;i18n#123#chocolate&quot;}" style="text;html=1;strokeColor=none;fillColor=none;align=center;verticalAlign=middle;whiteSpace=wrap;rounded=0;fontSize=15;fontColor=#000000;" vertex="1" parent="1">
          <mxGeometry x="580" y="2081" width="310" height="45" as="geometry" />
        </mxCell>
        <mxCell id="UZmu4c3q16m0rg6N8I7Y-371" value="{goods_name_en:&quot;&lt;span style=&quot;font-family: &amp;#34;arial&amp;#34; , sans-serif ; font-size: 12px ; text-align: left&quot;&gt;초콜릿&lt;/span&gt;&quot;}" style="text;html=1;strokeColor=none;fillColor=none;align=center;verticalAlign=middle;whiteSpace=wrap;rounded=0;fontSize=15;fontColor=#000000;" vertex="1" parent="1">
          <mxGeometry x="424" y="1920" width="310" height="40" as="geometry" />
        </mxCell>
        <mxCell id="UZmu4c3q16m0rg6N8I7Y-376" style="edgeStyle=orthogonalEdgeStyle;rounded=0;orthogonalLoop=1;jettySize=auto;html=1;exitX=0.294;exitY=0.97;exitDx=0;exitDy=0;entryX=0.25;entryY=0;entryDx=0;entryDy=0;fontSize=15;fontColor=#000000;exitPerimeter=0;" edge="1" parent="1" source="UZmu4c3q16m0rg6N8I7Y-314" target="UZmu4c3q16m0rg6N8I7Y-315">
          <mxGeometry relative="1" as="geometry">
            <mxPoint x="497.5" y="2016" as="sourcePoint" />
            <mxPoint x="498.0799999999999" y="1926" as="targetPoint" />
          </mxGeometry>
        </mxCell>
        <mxCell id="UZmu4c3q16m0rg6N8I7Y-377" value="⑥" style="text;html=1;strokeColor=none;fillColor=none;align=center;verticalAlign=middle;whiteSpace=wrap;rounded=0;fontSize=15;fontColor=#000000;" vertex="1" parent="1">
          <mxGeometry x="480" y="1956" width="60" height="30" as="geometry" />
        </mxCell>
        <mxCell id="UZmu4c3q16m0rg6N8I7Y-378" value="" style="shape=table;startSize=0;container=1;collapsible=0;childLayout=tableLayout;fontSize=15;fontColor=#FFFFFF;fillColor=#FF9933;" vertex="1" parent="1">
          <mxGeometry x="900" y="2106" width="510" height="160" as="geometry" />
        </mxCell>
        <mxCell id="UZmu4c3q16m0rg6N8I7Y-379" value="" style="shape=tableRow;horizontal=0;startSize=0;swimlaneHead=0;swimlaneBody=0;top=0;left=0;bottom=0;right=0;collapsible=0;dropTarget=0;fillColor=none;points=[[0,0.5],[1,0.5]];portConstraint=eastwest;fontSize=15;fontColor=#FFFFFF;" vertex="1" parent="UZmu4c3q16m0rg6N8I7Y-378">
          <mxGeometry width="510" height="40" as="geometry" />
        </mxCell>
        <mxCell id="UZmu4c3q16m0rg6N8I7Y-380" value="id" style="shape=partialRectangle;html=1;whiteSpace=wrap;connectable=0;overflow=hidden;fillColor=none;top=0;left=0;bottom=0;right=0;pointerEvents=1;fontSize=15;fontColor=#FFFFFF;" vertex="1" parent="UZmu4c3q16m0rg6N8I7Y-379">
          <mxGeometry width="60" height="40" as="geometry">
            <mxRectangle width="60" height="40" as="alternateBounds" />
          </mxGeometry>
        </mxCell>
        <mxCell id="UZmu4c3q16m0rg6N8I7Y-381" value="vi" style="shape=partialRectangle;html=1;whiteSpace=wrap;connectable=0;overflow=hidden;fillColor=none;top=0;left=0;bottom=0;right=0;pointerEvents=1;fontSize=15;fontColor=#FFFFFF;" vertex="1" parent="UZmu4c3q16m0rg6N8I7Y-379">
          <mxGeometry x="60" width="60" height="40" as="geometry">
            <mxRectangle width="60" height="40" as="alternateBounds" />
          </mxGeometry>
        </mxCell>
        <mxCell id="UZmu4c3q16m0rg6N8I7Y-382" value="zh_cn" style="shape=partialRectangle;html=1;whiteSpace=wrap;connectable=0;overflow=hidden;fillColor=none;top=0;left=0;bottom=0;right=0;pointerEvents=1;fontSize=15;fontColor=#FFFFFF;" vertex="1" parent="UZmu4c3q16m0rg6N8I7Y-379">
          <mxGeometry x="120" width="60" height="40" as="geometry">
            <mxRectangle width="60" height="40" as="alternateBounds" />
          </mxGeometry>
        </mxCell>
        <mxCell id="UZmu4c3q16m0rg6N8I7Y-383" value="zh_tw" style="shape=partialRectangle;html=1;whiteSpace=wrap;connectable=0;overflow=hidden;fillColor=none;top=0;left=0;bottom=0;right=0;pointerEvents=1;fontSize=15;fontColor=#FFFFFF;" vertex="1" parent="UZmu4c3q16m0rg6N8I7Y-379">
          <mxGeometry x="180" width="60" height="40" as="geometry">
            <mxRectangle width="60" height="40" as="alternateBounds" />
          </mxGeometry>
        </mxCell>
        <mxCell id="UZmu4c3q16m0rg6N8I7Y-384" value="en" style="shape=partialRectangle;html=1;whiteSpace=wrap;connectable=0;overflow=hidden;fillColor=none;top=0;left=0;bottom=0;right=0;pointerEvents=1;fontSize=15;fontColor=#FFFFFF;" vertex="1" parent="UZmu4c3q16m0rg6N8I7Y-379">
          <mxGeometry x="240" width="70" height="40" as="geometry">
            <mxRectangle width="70" height="40" as="alternateBounds" />
          </mxGeometry>
        </mxCell>
        <mxCell id="UZmu4c3q16m0rg6N8I7Y-385" value="ja" style="shape=partialRectangle;html=1;whiteSpace=wrap;connectable=0;overflow=hidden;fillColor=none;top=0;left=0;bottom=0;right=0;pointerEvents=1;fontSize=15;fontColor=#FFFFFF;" vertex="1" parent="UZmu4c3q16m0rg6N8I7Y-379">
          <mxGeometry x="310" width="50" height="40" as="geometry">
            <mxRectangle width="50" height="40" as="alternateBounds" />
          </mxGeometry>
        </mxCell>
        <mxCell id="UZmu4c3q16m0rg6N8I7Y-386" value="ko" style="shape=partialRectangle;html=1;whiteSpace=wrap;connectable=0;overflow=hidden;fillColor=none;top=0;left=0;bottom=0;right=0;pointerEvents=1;fontSize=15;fontColor=#FFFFFF;" vertex="1" parent="UZmu4c3q16m0rg6N8I7Y-379">
          <mxGeometry x="360" width="60" height="40" as="geometry">
            <mxRectangle width="60" height="40" as="alternateBounds" />
          </mxGeometry>
        </mxCell>
        <mxCell id="UZmu4c3q16m0rg6N8I7Y-387" value="es" style="shape=partialRectangle;html=1;whiteSpace=wrap;connectable=0;overflow=hidden;fillColor=none;top=0;left=0;bottom=0;right=0;pointerEvents=1;fontSize=15;fontColor=#FFFFFF;" vertex="1" parent="UZmu4c3q16m0rg6N8I7Y-379">
          <mxGeometry x="420" width="90" height="40" as="geometry">
            <mxRectangle width="90" height="40" as="alternateBounds" />
          </mxGeometry>
        </mxCell>
        <mxCell id="UZmu4c3q16m0rg6N8I7Y-388" value="" style="shape=tableRow;horizontal=0;startSize=0;swimlaneHead=0;swimlaneBody=0;top=0;left=0;bottom=0;right=0;collapsible=0;dropTarget=0;fillColor=none;points=[[0,0.5],[1,0.5]];portConstraint=eastwest;fontSize=15;fontColor=#FFFFFF;" vertex="1" parent="UZmu4c3q16m0rg6N8I7Y-378">
          <mxGeometry y="40" width="510" height="40" as="geometry" />
        </mxCell>
        <mxCell id="UZmu4c3q16m0rg6N8I7Y-389" value="123" style="shape=partialRectangle;html=1;whiteSpace=wrap;connectable=0;overflow=hidden;fillColor=none;top=0;left=0;bottom=0;right=0;pointerEvents=1;fontSize=15;fontColor=#FFFFFF;" vertex="1" parent="UZmu4c3q16m0rg6N8I7Y-388">
          <mxGeometry width="60" height="40" as="geometry">
            <mxRectangle width="60" height="40" as="alternateBounds" />
          </mxGeometry>
        </mxCell>
        <mxCell id="UZmu4c3q16m0rg6N8I7Y-390" value="sô cô la" style="shape=partialRectangle;html=1;whiteSpace=wrap;connectable=0;overflow=hidden;fillColor=none;top=0;left=0;bottom=0;right=0;pointerEvents=1;fontSize=15;fontColor=#FFFFFF;" vertex="1" parent="UZmu4c3q16m0rg6N8I7Y-388">
          <mxGeometry x="60" width="60" height="40" as="geometry">
            <mxRectangle width="60" height="40" as="alternateBounds" />
          </mxGeometry>
        </mxCell>
        <mxCell id="UZmu4c3q16m0rg6N8I7Y-391" value="巧克力" style="shape=partialRectangle;html=1;whiteSpace=wrap;connectable=0;overflow=hidden;fillColor=none;top=0;left=0;bottom=0;right=0;pointerEvents=1;fontSize=15;fontColor=#FFFFFF;" vertex="1" parent="UZmu4c3q16m0rg6N8I7Y-388">
          <mxGeometry x="120" width="60" height="40" as="geometry">
            <mxRectangle width="60" height="40" as="alternateBounds" />
          </mxGeometry>
        </mxCell>
        <mxCell id="UZmu4c3q16m0rg6N8I7Y-392" value="巧克力" style="shape=partialRectangle;html=1;whiteSpace=wrap;connectable=0;overflow=hidden;fillColor=none;top=0;left=0;bottom=0;right=0;pointerEvents=1;fontSize=15;fontColor=#FFFFFF;" vertex="1" parent="UZmu4c3q16m0rg6N8I7Y-388">
          <mxGeometry x="180" width="60" height="40" as="geometry">
            <mxRectangle width="60" height="40" as="alternateBounds" />
          </mxGeometry>
        </mxCell>
        <mxCell id="UZmu4c3q16m0rg6N8I7Y-393" value="chocolate" style="shape=partialRectangle;html=1;whiteSpace=wrap;connectable=0;overflow=hidden;fillColor=none;top=0;left=0;bottom=0;right=0;pointerEvents=1;fontSize=15;fontColor=#FFFFFF;" vertex="1" parent="UZmu4c3q16m0rg6N8I7Y-388">
          <mxGeometry x="240" width="70" height="40" as="geometry">
            <mxRectangle width="70" height="40" as="alternateBounds" />
          </mxGeometry>
        </mxCell>
        <mxCell id="UZmu4c3q16m0rg6N8I7Y-394" value="チョコレート" style="shape=partialRectangle;html=1;whiteSpace=wrap;connectable=0;overflow=hidden;fillColor=none;top=0;left=0;bottom=0;right=0;pointerEvents=1;fontSize=15;fontColor=#FFFFFF;" vertex="1" parent="UZmu4c3q16m0rg6N8I7Y-388">
          <mxGeometry x="310" width="50" height="40" as="geometry">
            <mxRectangle width="50" height="40" as="alternateBounds" />
          </mxGeometry>
        </mxCell>
        <mxCell id="UZmu4c3q16m0rg6N8I7Y-395" value="&lt;span style=&quot;font-family: &amp;#34;arial&amp;#34; , sans-serif ; font-size: 12px ; text-align: left&quot;&gt;초콜릿&lt;/span&gt;" style="shape=partialRectangle;html=1;whiteSpace=wrap;connectable=0;overflow=hidden;fillColor=none;top=0;left=0;bottom=0;right=0;pointerEvents=1;fontSize=15;fontColor=#FFFFFF;" vertex="1" parent="UZmu4c3q16m0rg6N8I7Y-388">
          <mxGeometry x="360" width="60" height="40" as="geometry">
            <mxRectangle width="60" height="40" as="alternateBounds" />
          </mxGeometry>
        </mxCell>
        <mxCell id="UZmu4c3q16m0rg6N8I7Y-396" value="&lt;span&gt;chocolate&lt;/span&gt;" style="shape=partialRectangle;html=1;whiteSpace=wrap;connectable=0;overflow=hidden;fillColor=none;top=0;left=0;bottom=0;right=0;pointerEvents=1;fontSize=15;fontColor=#FFFFFF;" vertex="1" parent="UZmu4c3q16m0rg6N8I7Y-388">
          <mxGeometry x="420" width="90" height="40" as="geometry">
            <mxRectangle width="90" height="40" as="alternateBounds" />
          </mxGeometry>
        </mxCell>
        <mxCell id="UZmu4c3q16m0rg6N8I7Y-397" value="" style="shape=tableRow;horizontal=0;startSize=0;swimlaneHead=0;swimlaneBody=0;top=0;left=0;bottom=0;right=0;collapsible=0;dropTarget=0;fillColor=none;points=[[0,0.5],[1,0.5]];portConstraint=eastwest;fontSize=15;fontColor=#FFFFFF;" vertex="1" parent="UZmu4c3q16m0rg6N8I7Y-378">
          <mxGeometry y="80" width="510" height="40" as="geometry" />
        </mxCell>
        <mxCell id="UZmu4c3q16m0rg6N8I7Y-398" value="124" style="shape=partialRectangle;html=1;whiteSpace=wrap;connectable=0;overflow=hidden;fillColor=none;top=0;left=0;bottom=0;right=0;pointerEvents=1;fontSize=15;fontColor=#FFFFFF;" vertex="1" parent="UZmu4c3q16m0rg6N8I7Y-397">
          <mxGeometry width="60" height="40" as="geometry">
            <mxRectangle width="60" height="40" as="alternateBounds" />
          </mxGeometry>
        </mxCell>
        <mxCell id="UZmu4c3q16m0rg6N8I7Y-399" value="quả táo" style="shape=partialRectangle;html=1;whiteSpace=wrap;connectable=0;overflow=hidden;fillColor=none;top=0;left=0;bottom=0;right=0;pointerEvents=1;fontSize=15;fontColor=#FFFFFF;" vertex="1" parent="UZmu4c3q16m0rg6N8I7Y-397">
          <mxGeometry x="60" width="60" height="40" as="geometry">
            <mxRectangle width="60" height="40" as="alternateBounds" />
          </mxGeometry>
        </mxCell>
        <mxCell id="UZmu4c3q16m0rg6N8I7Y-400" value="苹果" style="shape=partialRectangle;html=1;whiteSpace=wrap;connectable=0;overflow=hidden;fillColor=none;top=0;left=0;bottom=0;right=0;pointerEvents=1;fontSize=15;fontColor=#FFFFFF;" vertex="1" parent="UZmu4c3q16m0rg6N8I7Y-397">
          <mxGeometry x="120" width="60" height="40" as="geometry">
            <mxRectangle width="60" height="40" as="alternateBounds" />
          </mxGeometry>
        </mxCell>
        <mxCell id="UZmu4c3q16m0rg6N8I7Y-401" value="蘋果" style="shape=partialRectangle;html=1;whiteSpace=wrap;connectable=0;overflow=hidden;fillColor=none;top=0;left=0;bottom=0;right=0;pointerEvents=1;fontSize=15;fontColor=#FFFFFF;" vertex="1" parent="UZmu4c3q16m0rg6N8I7Y-397">
          <mxGeometry x="180" width="60" height="40" as="geometry">
            <mxRectangle width="60" height="40" as="alternateBounds" />
          </mxGeometry>
        </mxCell>
        <mxCell id="UZmu4c3q16m0rg6N8I7Y-402" value="apple" style="shape=partialRectangle;html=1;whiteSpace=wrap;connectable=0;overflow=hidden;fillColor=none;top=0;left=0;bottom=0;right=0;pointerEvents=1;fontSize=15;fontColor=#FFFFFF;" vertex="1" parent="UZmu4c3q16m0rg6N8I7Y-397">
          <mxGeometry x="240" width="70" height="40" as="geometry">
            <mxRectangle width="70" height="40" as="alternateBounds" />
          </mxGeometry>
        </mxCell>
        <mxCell id="UZmu4c3q16m0rg6N8I7Y-403" value="りんご" style="shape=partialRectangle;html=1;whiteSpace=wrap;connectable=0;overflow=hidden;fillColor=none;top=0;left=0;bottom=0;right=0;pointerEvents=1;fontSize=15;fontColor=#FFFFFF;" vertex="1" parent="UZmu4c3q16m0rg6N8I7Y-397">
          <mxGeometry x="310" width="50" height="40" as="geometry">
            <mxRectangle width="50" height="40" as="alternateBounds" />
          </mxGeometry>
        </mxCell>
        <mxCell id="UZmu4c3q16m0rg6N8I7Y-404" value="사과" style="shape=partialRectangle;html=1;whiteSpace=wrap;connectable=0;overflow=hidden;fillColor=none;top=0;left=0;bottom=0;right=0;pointerEvents=1;fontSize=15;fontColor=#FFFFFF;" vertex="1" parent="UZmu4c3q16m0rg6N8I7Y-397">
          <mxGeometry x="360" width="60" height="40" as="geometry">
            <mxRectangle width="60" height="40" as="alternateBounds" />
          </mxGeometry>
        </mxCell>
        <mxCell id="UZmu4c3q16m0rg6N8I7Y-405" value="manzana" style="shape=partialRectangle;html=1;whiteSpace=wrap;connectable=0;overflow=hidden;fillColor=none;top=0;left=0;bottom=0;right=0;pointerEvents=1;fontSize=15;fontColor=#FFFFFF;" vertex="1" parent="UZmu4c3q16m0rg6N8I7Y-397">
          <mxGeometry x="420" width="90" height="40" as="geometry">
            <mxRectangle width="90" height="40" as="alternateBounds" />
          </mxGeometry>
        </mxCell>
        <mxCell id="UZmu4c3q16m0rg6N8I7Y-406" value="" style="shape=tableRow;horizontal=0;startSize=0;swimlaneHead=0;swimlaneBody=0;top=0;left=0;bottom=0;right=0;collapsible=0;dropTarget=0;fillColor=none;points=[[0,0.5],[1,0.5]];portConstraint=eastwest;fontSize=15;fontColor=#FFFFFF;" vertex="1" parent="UZmu4c3q16m0rg6N8I7Y-378">
          <mxGeometry y="120" width="510" height="40" as="geometry" />
        </mxCell>
        <mxCell id="UZmu4c3q16m0rg6N8I7Y-407" value="125" style="shape=partialRectangle;html=1;whiteSpace=wrap;connectable=0;overflow=hidden;fillColor=none;top=0;left=0;bottom=0;right=0;pointerEvents=1;fontSize=15;fontColor=#FFFFFF;" vertex="1" parent="UZmu4c3q16m0rg6N8I7Y-406">
          <mxGeometry width="60" height="40" as="geometry">
            <mxRectangle width="60" height="40" as="alternateBounds" />
          </mxGeometry>
        </mxCell>
        <mxCell id="UZmu4c3q16m0rg6N8I7Y-408" value="" style="shape=partialRectangle;html=1;whiteSpace=wrap;connectable=0;overflow=hidden;fillColor=none;top=0;left=0;bottom=0;right=0;pointerEvents=1;fontSize=15;fontColor=#FFFFFF;" vertex="1" parent="UZmu4c3q16m0rg6N8I7Y-406">
          <mxGeometry x="60" width="60" height="40" as="geometry">
            <mxRectangle width="60" height="40" as="alternateBounds" />
          </mxGeometry>
        </mxCell>
        <mxCell id="UZmu4c3q16m0rg6N8I7Y-409" value="" style="shape=partialRectangle;html=1;whiteSpace=wrap;connectable=0;overflow=hidden;fillColor=none;top=0;left=0;bottom=0;right=0;pointerEvents=1;fontSize=15;fontColor=#FFFFFF;" vertex="1" parent="UZmu4c3q16m0rg6N8I7Y-406">
          <mxGeometry x="120" width="60" height="40" as="geometry">
            <mxRectangle width="60" height="40" as="alternateBounds" />
          </mxGeometry>
        </mxCell>
        <mxCell id="UZmu4c3q16m0rg6N8I7Y-410" value="" style="shape=partialRectangle;html=1;whiteSpace=wrap;connectable=0;overflow=hidden;fillColor=none;top=0;left=0;bottom=0;right=0;pointerEvents=1;fontSize=15;fontColor=#FFFFFF;" vertex="1" parent="UZmu4c3q16m0rg6N8I7Y-406">
          <mxGeometry x="180" width="60" height="40" as="geometry">
            <mxRectangle width="60" height="40" as="alternateBounds" />
          </mxGeometry>
        </mxCell>
        <mxCell id="UZmu4c3q16m0rg6N8I7Y-411" value="" style="shape=partialRectangle;html=1;whiteSpace=wrap;connectable=0;overflow=hidden;fillColor=none;top=0;left=0;bottom=0;right=0;pointerEvents=1;fontSize=15;fontColor=#FFFFFF;" vertex="1" parent="UZmu4c3q16m0rg6N8I7Y-406">
          <mxGeometry x="240" width="70" height="40" as="geometry">
            <mxRectangle width="70" height="40" as="alternateBounds" />
          </mxGeometry>
        </mxCell>
        <mxCell id="UZmu4c3q16m0rg6N8I7Y-412" value="" style="shape=partialRectangle;html=1;whiteSpace=wrap;connectable=0;overflow=hidden;fillColor=none;top=0;left=0;bottom=0;right=0;pointerEvents=1;fontSize=15;fontColor=#FFFFFF;" vertex="1" parent="UZmu4c3q16m0rg6N8I7Y-406">
          <mxGeometry x="310" width="50" height="40" as="geometry">
            <mxRectangle width="50" height="40" as="alternateBounds" />
          </mxGeometry>
        </mxCell>
        <mxCell id="UZmu4c3q16m0rg6N8I7Y-413" value="" style="shape=partialRectangle;html=1;whiteSpace=wrap;connectable=0;overflow=hidden;fillColor=none;top=0;left=0;bottom=0;right=0;pointerEvents=1;fontSize=15;fontColor=#FFFFFF;" vertex="1" parent="UZmu4c3q16m0rg6N8I7Y-406">
          <mxGeometry x="360" width="60" height="40" as="geometry">
            <mxRectangle width="60" height="40" as="alternateBounds" />
          </mxGeometry>
        </mxCell>
        <mxCell id="UZmu4c3q16m0rg6N8I7Y-414" value="" style="shape=partialRectangle;html=1;whiteSpace=wrap;connectable=0;overflow=hidden;fillColor=none;top=0;left=0;bottom=0;right=0;pointerEvents=1;fontSize=15;fontColor=#FFFFFF;" vertex="1" parent="UZmu4c3q16m0rg6N8I7Y-406">
          <mxGeometry x="420" width="90" height="40" as="geometry">
            <mxRectangle width="90" height="40" as="alternateBounds" />
          </mxGeometry>
        </mxCell>
        <mxCell id="UZmu4c3q16m0rg6N8I7Y-443" value="" style="shape=table;startSize=0;container=1;collapsible=0;childLayout=tableLayout;fontSize=15;fontColor=#FFFFFF;fillColor=#FF9933;" vertex="1" parent="1">
          <mxGeometry x="920" y="2320" width="470" height="160" as="geometry" />
        </mxCell>
        <mxCell id="UZmu4c3q16m0rg6N8I7Y-444" value="" style="shape=tableRow;horizontal=0;startSize=0;swimlaneHead=0;swimlaneBody=0;top=0;left=0;bottom=0;right=0;collapsible=0;dropTarget=0;fillColor=none;points=[[0,0.5],[1,0.5]];portConstraint=eastwest;fontSize=15;fontColor=#FFFFFF;" vertex="1" parent="UZmu4c3q16m0rg6N8I7Y-443">
          <mxGeometry width="470" height="40" as="geometry" />
        </mxCell>
        <mxCell id="UZmu4c3q16m0rg6N8I7Y-445" value="id" style="shape=partialRectangle;html=1;whiteSpace=wrap;connectable=0;overflow=hidden;fillColor=none;top=0;left=0;bottom=0;right=0;pointerEvents=1;fontSize=15;fontColor=#FFFFFF;" vertex="1" parent="UZmu4c3q16m0rg6N8I7Y-444">
          <mxGeometry width="60" height="40" as="geometry">
            <mxRectangle width="60" height="40" as="alternateBounds" />
          </mxGeometry>
        </mxCell>
        <mxCell id="UZmu4c3q16m0rg6N8I7Y-446" value="goods_name" style="shape=partialRectangle;html=1;whiteSpace=wrap;connectable=0;overflow=hidden;fillColor=none;top=0;left=0;bottom=0;right=0;pointerEvents=1;fontSize=15;fontColor=#FFFFFF;" vertex="1" parent="UZmu4c3q16m0rg6N8I7Y-444">
          <mxGeometry x="60" width="100" height="40" as="geometry">
            <mxRectangle width="100" height="40" as="alternateBounds" />
          </mxGeometry>
        </mxCell>
        <mxCell id="UZmu4c3q16m0rg6N8I7Y-447" value="goods_name_en" style="shape=partialRectangle;html=1;whiteSpace=wrap;connectable=0;overflow=hidden;fillColor=none;top=0;left=0;bottom=0;right=0;pointerEvents=1;fontSize=15;fontColor=#FFFFFF;" vertex="1" parent="UZmu4c3q16m0rg6N8I7Y-444">
          <mxGeometry x="160" width="150" height="40" as="geometry">
            <mxRectangle width="150" height="40" as="alternateBounds" />
          </mxGeometry>
        </mxCell>
        <mxCell id="UZmu4c3q16m0rg6N8I7Y-448" value="" style="shape=partialRectangle;html=1;whiteSpace=wrap;connectable=0;overflow=hidden;fillColor=none;top=0;left=0;bottom=0;right=0;pointerEvents=1;fontSize=15;fontColor=#FFFFFF;" vertex="1" parent="UZmu4c3q16m0rg6N8I7Y-444">
          <mxGeometry x="310" width="50" height="40" as="geometry">
            <mxRectangle width="50" height="40" as="alternateBounds" />
          </mxGeometry>
        </mxCell>
        <mxCell id="UZmu4c3q16m0rg6N8I7Y-449" value="" style="shape=partialRectangle;html=1;whiteSpace=wrap;connectable=0;overflow=hidden;fillColor=none;top=0;left=0;bottom=0;right=0;pointerEvents=1;fontSize=15;fontColor=#FFFFFF;" vertex="1" parent="UZmu4c3q16m0rg6N8I7Y-444">
          <mxGeometry x="360" width="110" height="40" as="geometry">
            <mxRectangle width="110" height="40" as="alternateBounds" />
          </mxGeometry>
        </mxCell>
        <mxCell id="UZmu4c3q16m0rg6N8I7Y-450" value="" style="shape=tableRow;horizontal=0;startSize=0;swimlaneHead=0;swimlaneBody=0;top=0;left=0;bottom=0;right=0;collapsible=0;dropTarget=0;fillColor=none;points=[[0,0.5],[1,0.5]];portConstraint=eastwest;fontSize=15;fontColor=#FFFFFF;" vertex="1" parent="UZmu4c3q16m0rg6N8I7Y-443">
          <mxGeometry y="40" width="470" height="40" as="geometry" />
        </mxCell>
        <mxCell id="UZmu4c3q16m0rg6N8I7Y-451" value="1" style="shape=partialRectangle;html=1;whiteSpace=wrap;connectable=0;overflow=hidden;fillColor=none;top=0;left=0;bottom=0;right=0;pointerEvents=1;fontSize=15;fontColor=#FFFFFF;" vertex="1" parent="UZmu4c3q16m0rg6N8I7Y-450">
          <mxGeometry width="60" height="40" as="geometry">
            <mxRectangle width="60" height="40" as="alternateBounds" />
          </mxGeometry>
        </mxCell>
        <mxCell id="UZmu4c3q16m0rg6N8I7Y-452" value="巧克力" style="shape=partialRectangle;html=1;whiteSpace=wrap;connectable=0;overflow=hidden;fillColor=none;top=0;left=0;bottom=0;right=0;pointerEvents=1;fontSize=15;fontColor=#FFFFFF;" vertex="1" parent="UZmu4c3q16m0rg6N8I7Y-450">
          <mxGeometry x="60" width="100" height="40" as="geometry">
            <mxRectangle width="100" height="40" as="alternateBounds" />
          </mxGeometry>
        </mxCell>
        <mxCell id="UZmu4c3q16m0rg6N8I7Y-453" value="&lt;span style=&quot;font-family: &amp;#34;arial&amp;#34; , sans-serif ; text-align: left ; font-size: 15px&quot;&gt;chocolate&lt;/span&gt;" style="shape=partialRectangle;html=1;whiteSpace=wrap;connectable=0;overflow=hidden;fillColor=none;top=0;left=0;bottom=0;right=0;pointerEvents=1;fontSize=15;fontColor=#FFFFFF;" vertex="1" parent="UZmu4c3q16m0rg6N8I7Y-450">
          <mxGeometry x="160" width="150" height="40" as="geometry">
            <mxRectangle width="150" height="40" as="alternateBounds" />
          </mxGeometry>
        </mxCell>
        <mxCell id="UZmu4c3q16m0rg6N8I7Y-454" value="" style="shape=partialRectangle;html=1;whiteSpace=wrap;connectable=0;overflow=hidden;fillColor=none;top=0;left=0;bottom=0;right=0;pointerEvents=1;fontSize=15;fontColor=#FFFFFF;" vertex="1" parent="UZmu4c3q16m0rg6N8I7Y-450">
          <mxGeometry x="310" width="50" height="40" as="geometry">
            <mxRectangle width="50" height="40" as="alternateBounds" />
          </mxGeometry>
        </mxCell>
        <mxCell id="UZmu4c3q16m0rg6N8I7Y-455" value="" style="shape=partialRectangle;html=1;whiteSpace=wrap;connectable=0;overflow=hidden;fillColor=none;top=0;left=0;bottom=0;right=0;pointerEvents=1;fontSize=15;fontColor=#FFFFFF;" vertex="1" parent="UZmu4c3q16m0rg6N8I7Y-450">
          <mxGeometry x="360" width="110" height="40" as="geometry">
            <mxRectangle width="110" height="40" as="alternateBounds" />
          </mxGeometry>
        </mxCell>
        <mxCell id="UZmu4c3q16m0rg6N8I7Y-456" value="" style="shape=tableRow;horizontal=0;startSize=0;swimlaneHead=0;swimlaneBody=0;top=0;left=0;bottom=0;right=0;collapsible=0;dropTarget=0;fillColor=none;points=[[0,0.5],[1,0.5]];portConstraint=eastwest;fontSize=15;fontColor=#FFFFFF;" vertex="1" parent="UZmu4c3q16m0rg6N8I7Y-443">
          <mxGeometry y="80" width="470" height="40" as="geometry" />
        </mxCell>
        <mxCell id="UZmu4c3q16m0rg6N8I7Y-457" value="2" style="shape=partialRectangle;html=1;whiteSpace=wrap;connectable=0;overflow=hidden;fillColor=none;top=0;left=0;bottom=0;right=0;pointerEvents=1;fontSize=15;fontColor=#FFFFFF;" vertex="1" parent="UZmu4c3q16m0rg6N8I7Y-456">
          <mxGeometry width="60" height="40" as="geometry">
            <mxRectangle width="60" height="40" as="alternateBounds" />
          </mxGeometry>
        </mxCell>
        <mxCell id="UZmu4c3q16m0rg6N8I7Y-458" value="香蕉" style="shape=partialRectangle;html=1;whiteSpace=wrap;connectable=0;overflow=hidden;fillColor=none;top=0;left=0;bottom=0;right=0;pointerEvents=1;fontSize=15;fontColor=#FFFFFF;" vertex="1" parent="UZmu4c3q16m0rg6N8I7Y-456">
          <mxGeometry x="60" width="100" height="40" as="geometry">
            <mxRectangle width="100" height="40" as="alternateBounds" />
          </mxGeometry>
        </mxCell>
        <mxCell id="UZmu4c3q16m0rg6N8I7Y-459" value="banana" style="shape=partialRectangle;html=1;whiteSpace=wrap;connectable=0;overflow=hidden;fillColor=none;top=0;left=0;bottom=0;right=0;pointerEvents=1;fontSize=15;fontColor=#FFFFFF;" vertex="1" parent="UZmu4c3q16m0rg6N8I7Y-456">
          <mxGeometry x="160" width="150" height="40" as="geometry">
            <mxRectangle width="150" height="40" as="alternateBounds" />
          </mxGeometry>
        </mxCell>
        <mxCell id="UZmu4c3q16m0rg6N8I7Y-460" value="" style="shape=partialRectangle;html=1;whiteSpace=wrap;connectable=0;overflow=hidden;fillColor=none;top=0;left=0;bottom=0;right=0;pointerEvents=1;fontSize=15;fontColor=#FFFFFF;" vertex="1" parent="UZmu4c3q16m0rg6N8I7Y-456">
          <mxGeometry x="310" width="50" height="40" as="geometry">
            <mxRectangle width="50" height="40" as="alternateBounds" />
          </mxGeometry>
        </mxCell>
        <mxCell id="UZmu4c3q16m0rg6N8I7Y-461" value="" style="shape=partialRectangle;html=1;whiteSpace=wrap;connectable=0;overflow=hidden;fillColor=none;top=0;left=0;bottom=0;right=0;pointerEvents=1;fontSize=15;fontColor=#FFFFFF;" vertex="1" parent="UZmu4c3q16m0rg6N8I7Y-456">
          <mxGeometry x="360" width="110" height="40" as="geometry">
            <mxRectangle width="110" height="40" as="alternateBounds" />
          </mxGeometry>
        </mxCell>
        <mxCell id="UZmu4c3q16m0rg6N8I7Y-462" value="" style="shape=tableRow;horizontal=0;startSize=0;swimlaneHead=0;swimlaneBody=0;top=0;left=0;bottom=0;right=0;collapsible=0;dropTarget=0;fillColor=none;points=[[0,0.5],[1,0.5]];portConstraint=eastwest;fontSize=15;fontColor=#FFFFFF;" vertex="1" parent="UZmu4c3q16m0rg6N8I7Y-443">
          <mxGeometry y="120" width="470" height="40" as="geometry" />
        </mxCell>
        <mxCell id="UZmu4c3q16m0rg6N8I7Y-463" value="3" style="shape=partialRectangle;html=1;whiteSpace=wrap;connectable=0;overflow=hidden;fillColor=none;top=0;left=0;bottom=0;right=0;pointerEvents=1;fontSize=15;fontColor=#FFFFFF;" vertex="1" parent="UZmu4c3q16m0rg6N8I7Y-462">
          <mxGeometry width="60" height="40" as="geometry">
            <mxRectangle width="60" height="40" as="alternateBounds" />
          </mxGeometry>
        </mxCell>
        <mxCell id="UZmu4c3q16m0rg6N8I7Y-464" value="" style="shape=partialRectangle;html=1;whiteSpace=wrap;connectable=0;overflow=hidden;fillColor=none;top=0;left=0;bottom=0;right=0;pointerEvents=1;fontSize=15;fontColor=#FFFFFF;" vertex="1" parent="UZmu4c3q16m0rg6N8I7Y-462">
          <mxGeometry x="60" width="100" height="40" as="geometry">
            <mxRectangle width="100" height="40" as="alternateBounds" />
          </mxGeometry>
        </mxCell>
        <mxCell id="UZmu4c3q16m0rg6N8I7Y-465" value="" style="shape=partialRectangle;html=1;whiteSpace=wrap;connectable=0;overflow=hidden;fillColor=none;top=0;left=0;bottom=0;right=0;pointerEvents=1;fontSize=15;fontColor=#FFFFFF;" vertex="1" parent="UZmu4c3q16m0rg6N8I7Y-462">
          <mxGeometry x="160" width="150" height="40" as="geometry">
            <mxRectangle width="150" height="40" as="alternateBounds" />
          </mxGeometry>
        </mxCell>
        <mxCell id="UZmu4c3q16m0rg6N8I7Y-466" value="" style="shape=partialRectangle;html=1;whiteSpace=wrap;connectable=0;overflow=hidden;fillColor=none;top=0;left=0;bottom=0;right=0;pointerEvents=1;fontSize=15;fontColor=#FFFFFF;" vertex="1" parent="UZmu4c3q16m0rg6N8I7Y-462">
          <mxGeometry x="310" width="50" height="40" as="geometry">
            <mxRectangle width="50" height="40" as="alternateBounds" />
          </mxGeometry>
        </mxCell>
        <mxCell id="UZmu4c3q16m0rg6N8I7Y-467" value="" style="shape=partialRectangle;html=1;whiteSpace=wrap;connectable=0;overflow=hidden;fillColor=none;top=0;left=0;bottom=0;right=0;pointerEvents=1;fontSize=15;fontColor=#FFFFFF;" vertex="1" parent="UZmu4c3q16m0rg6N8I7Y-462">
          <mxGeometry x="360" width="110" height="40" as="geometry">
            <mxRectangle width="110" height="40" as="alternateBounds" />
          </mxGeometry>
        </mxCell>
        <mxCell id="UZmu4c3q16m0rg6N8I7Y-470" style="edgeStyle=orthogonalEdgeStyle;rounded=0;orthogonalLoop=1;jettySize=auto;html=1;exitX=0;exitY=0.5;exitDx=0;exitDy=0;fontSize=15;fontColor=#000000;strokeColor=#0000FF;strokeWidth=3;" edge="1" parent="1" source="UZmu4c3q16m0rg6N8I7Y-468" target="UZmu4c3q16m0rg6N8I7Y-339">
          <mxGeometry relative="1" as="geometry" />
        </mxCell>
        <mxCell id="UZmu4c3q16m0rg6N8I7Y-474" value="入库" style="edgeLabel;html=1;align=center;verticalAlign=middle;resizable=0;points=[];fontSize=15;fontColor=#000000;" vertex="1" connectable="0" parent="UZmu4c3q16m0rg6N8I7Y-470">
          <mxGeometry x="-0.0935" y="-1" relative="1" as="geometry">
            <mxPoint as="offset" />
          </mxGeometry>
        </mxCell>
        <mxCell id="UZmu4c3q16m0rg6N8I7Y-471" style="edgeStyle=orthogonalEdgeStyle;rounded=0;orthogonalLoop=1;jettySize=auto;html=1;exitX=0.5;exitY=0;exitDx=0;exitDy=0;entryX=0;entryY=0.5;entryDx=0;entryDy=0;fontSize=15;fontColor=#000000;strokeColor=#0000FF;strokeWidth=3;" edge="1" parent="1" source="UZmu4c3q16m0rg6N8I7Y-468" target="UZmu4c3q16m0rg6N8I7Y-397">
          <mxGeometry relative="1" as="geometry" />
        </mxCell>
        <mxCell id="UZmu4c3q16m0rg6N8I7Y-473" value="翻译" style="edgeLabel;html=1;align=center;verticalAlign=middle;resizable=0;points=[];fontSize=15;fontColor=#000000;" vertex="1" connectable="0" parent="UZmu4c3q16m0rg6N8I7Y-471">
          <mxGeometry x="-0.372" y="-3" relative="1" as="geometry">
            <mxPoint as="offset" />
          </mxGeometry>
        </mxCell>
        <mxCell id="UZmu4c3q16m0rg6N8I7Y-468" value="Translate Job" style="rounded=1;whiteSpace=wrap;html=1;fontSize=15;fontColor=#FFFFFF;fillColor=#B266FF;" vertex="1" parent="1">
          <mxGeometry x="750" y="2530" width="120" height="60" as="geometry" />
        </mxCell>
        <mxCell id="UZmu4c3q16m0rg6N8I7Y-469" style="edgeStyle=orthogonalEdgeStyle;rounded=0;orthogonalLoop=1;jettySize=auto;html=1;exitX=0;exitY=0.5;exitDx=0;exitDy=0;entryX=1;entryY=0.5;entryDx=0;entryDy=0;fontSize=15;fontColor=#000000;strokeColor=#0000FF;strokeWidth=3;" edge="1" parent="1" source="UZmu4c3q16m0rg6N8I7Y-456" target="UZmu4c3q16m0rg6N8I7Y-468">
          <mxGeometry relative="1" as="geometry" />
        </mxCell>
        <mxCell id="UZmu4c3q16m0rg6N8I7Y-472" value="异步Job" style="edgeLabel;html=1;align=center;verticalAlign=middle;resizable=0;points=[];fontSize=15;fontColor=#000000;" vertex="1" connectable="0" parent="UZmu4c3q16m0rg6N8I7Y-469">
          <mxGeometry x="0.2211" y="3" relative="1" as="geometry">
            <mxPoint as="offset" />
          </mxGeometry>
        </mxCell>
        <mxCell id="UZmu4c3q16m0rg6N8I7Y-475" value="Goods表" style="text;html=1;strokeColor=none;fillColor=none;align=center;verticalAlign=middle;whiteSpace=wrap;rounded=0;fontSize=15;fontColor=#000000;" vertex="1" parent="1">
          <mxGeometry x="390" y="2490" width="70" height="30" as="geometry" />
        </mxCell>
        <mxCell id="UZmu4c3q16m0rg6N8I7Y-476" value="Goods表" style="text;html=1;strokeColor=none;fillColor=none;align=center;verticalAlign=middle;whiteSpace=wrap;rounded=0;fontSize=15;fontColor=#000000;" vertex="1" parent="1">
          <mxGeometry x="1130" y="2490" width="70" height="30" as="geometry" />
        </mxCell>
        <mxCell id="UZmu4c3q16m0rg6N8I7Y-477" value="翻译表" style="text;html=1;strokeColor=none;fillColor=none;align=center;verticalAlign=middle;whiteSpace=wrap;rounded=0;fontSize=15;fontColor=#000000;" vertex="1" parent="1">
          <mxGeometry x="1110" y="2266" width="70" height="30" as="geometry" />
        </mxCell>
        <mxCell id="UZmu4c3q16m0rg6N8I7Y-478" value="lang: ko" style="text;html=1;strokeColor=none;fillColor=none;align=center;verticalAlign=middle;whiteSpace=wrap;rounded=0;fontSize=15;fontColor=#000000;" vertex="1" parent="1">
          <mxGeometry x="190" y="2088.5" width="60" height="30" as="geometry" />
        </mxCell>
        <mxCell id="UZmu4c3q16m0rg6N8I7Y-479" value="lang: ko" style="text;html=1;strokeColor=none;fillColor=none;align=center;verticalAlign=middle;whiteSpace=wrap;rounded=0;fontSize=15;fontColor=#000000;" vertex="1" parent="1">
          <mxGeometry x="645" y="2136" width="60" height="30" as="geometry" />
        </mxCell>
        <mxCell id="UZmu4c3q16m0rg6N8I7Y-480" value="lang: ko" style="text;html=1;strokeColor=none;fillColor=none;align=center;verticalAlign=middle;whiteSpace=wrap;rounded=0;fontSize=15;fontColor=#000000;" vertex="1" parent="1">
          <mxGeometry x="780" y="2066" width="60" height="30" as="geometry" />
        </mxCell>
        <mxCell id="UZmu4c3q16m0rg6N8I7Y-481" value="lang: ko" style="text;html=1;strokeColor=none;fillColor=none;align=center;verticalAlign=middle;whiteSpace=wrap;rounded=0;fontSize=15;fontColor=#000000;" vertex="1" parent="1">
          <mxGeometry x="680" y="1946" width="60" height="30" as="geometry" />
        </mxCell>
      </root>
    </mxGraphModel>
  </diagram>
</mxfile>
